<?xml version="1.0" encoding="UTF-8"?>
<svg width="800px" height="800px" viewBox="0 0 800 800" version="1.1" xmlns="http://www.w3.org/2000/svg" xmlns:xlink="http://www.w3.org/1999/xlink">
    <title>初级贡献者</title>
    <defs>
        <linearGradient x1="50%" y1="0%" x2="50%" y2="100%" id="linearGradient-1">
            <stop stop-color="#409EFF" offset="0%"></stop>
            <stop stop-color="#409EFF" offset="100%"></stop>
        </linearGradient>
    </defs>
    <g id="初级贡献者" stroke="none" stroke-width="1" fill="none" fill-rule="evenodd">
        <g id="编组" transform="translate(110.000000, 250.000000)">
            <g id="白底-大尺寸">
                <rect id="矩形" fill="#FFFFFF" x="0" y="0" width="600" height="300"></rect>
                <g id="透明组-大尺寸" transform="translate(66.984706, 8.000000)">
                    <polygon id="矩形" fill="#FFA917" points="65.0152945 240 113.015294 240 113.015294 284 89.0152945 265.873508 65.0152945 284"></polygon>
                    <path d="M325.125347,0 C363.314769,0 397.323699,12.0879 427.152138,36.2637 L428.054751,37 L428.054751,267 C394.038447,249 359.717964,240 325.093303,240 C290.814888,240 260.403109,252.4146 233.857966,277.2438 L233.054751,278 C206.320377,252.666667 175.64086,240 141.016199,240 C106.391538,240 72.0710551,249 38.0547508,267 L38.0547508,37 C68.0991803,12.3333333 102.408981,0 140.984154,0 C179.558817,0 210.248715,12.666332 233.053847,37.998996 C255.860787,12.666332 286.550684,0 325.125347,0 Z M325.125347,15 C291.007009,15 264.590795,25.7615259 244.799324,47.3769648 L244.201609,48.0353005 L233.053405,60.4180972 L221.90569,48.0348611 C202.051388,25.980073 175.447213,15 140.984154,15 C108.344399,15 79.2930147,24.6217819 53.3728383,44.0415757 L53.0542945,44.281 L53.0542945,243.298 L53.4564564,243.129779 C81.9439063,231.223519 110.774269,225.158592 139.86764,225.00307 L141.016199,225 C174.923749,225 205.593619,235.982752 232.552023,257.651896 L233.054294,258.058 L233.446182,257.741299 C260.129751,236.255691 290.452681,225.248803 323.950116,225.00417 L325.093303,225 C354.57648,225 383.790761,231.066858 412.653045,243.129779 L413.054294,243.298 L413.054294,44.281 L412.780306,44.0743213 C387.126645,24.840831 358.404181,15.2060889 326.166493,15.0032712 L325.125347,15 Z" id="路径" fill="url(#linearGradient-1)" fill-rule="nonzero"></path>
                    <polygon id="矩形" fill="#FFFFFF" points="0 73 467 73 467 200 0 200"></polygon>
                </g>
            </g>
            <text id="初级贡献者" font-family="PangMenZhengDao" font-size="113" font-weight="normal" letter-spacing="9.8" fill="#409EFF">
                <tspan x="7.12" y="184">初级贡献者</tspan>
            </text>
        </g>
    </g>
</svg>