<?xml version="1.0" encoding="UTF-8"?>
<svg width="600px" height="300px" viewBox="0 0 600 300" version="1.1" xmlns="http://www.w3.org/2000/svg" xmlns:xlink="http://www.w3.org/1999/xlink">
    <title>白底-大尺寸</title>
    <defs>
        <linearGradient x1="50%" y1="0%" x2="50%" y2="100%" id="linearGradient-1">
            <stop stop-color="#409EFF" offset="0%"></stop>
            <stop stop-color="#409EFF" offset="100%"></stop>
        </linearGradient>
    </defs>
    <g id="页面-1" stroke="none" stroke-width="1" fill="none" fill-rule="evenodd">
        <g id="-" transform="translate(-110.000000, -250.000000)">
            <g id="白底-大尺寸" transform="translate(110.000000, 250.000000)">
                <rect id="矩形" fill="#FFFFFF" x="0" y="0" width="600" height="300"></rect>
                <g id="透明组-大尺寸" transform="translate(66.984706, 8.000000)">
                    <polygon id="矩形" fill="#FFA917" points="65.0152945 240 113.015294 240 113.015294 284 89.0152945 265.873508 65.0152945 284"></polygon>
                    <path d="M325.125347,0 C363.314769,0 397.323699,12.0879 427.152138,36.2637 L428.054751,37 L428.054751,267 C394.038447,249 359.717964,240 325.093303,240 C290.814888,240 260.403109,252.4146 233.857966,277.2438 L233.054751,278 C206.320377,252.666667 175.64086,240 141.016199,240 C106.391538,240 72.0710551,249 38.0547508,267 L38.0547508,37 C68.0991803,12.3333333 102.408981,0 140.984154,0 C179.558817,0 210.248715,12.666332 233.053847,37.998996 C255.860787,12.666332 286.550684,0 325.125347,0 Z M325.125347,15 C291.007009,15 264.590795,25.7615259 244.799324,47.3769648 L244.201609,48.0353005 L233.053405,60.4180972 L221.90569,48.0348611 C202.051388,25.980073 175.447213,15 140.984154,15 C108.344399,15 79.2930147,24.6217819 53.3728383,44.0415757 L53.0542945,44.281 L53.0542945,243.298 L53.4564564,243.129779 C81.9439063,231.223519 110.774269,225.158592 139.86764,225.00307 L141.016199,225 C174.923749,225 205.593619,235.982752 232.552023,257.651896 L233.054294,258.058 L233.446182,257.741299 C260.129751,236.255691 290.452681,225.248803 323.950116,225.00417 L325.093303,225 C354.57648,225 383.790761,231.066858 412.653045,243.129779 L413.054294,243.298 L413.054294,44.281 L412.780306,44.0743213 C387.126645,24.840831 358.404181,15.2060889 326.166493,15.0032712 L325.125347,15 Z" id="路径" fill="url(#linearGradient-1)" fill-rule="nonzero"></path>
                    <polygon id="矩形" fill="#FFFFFF" points="0 73 467 73 467 200 0 200"></polygon>
                    <g id="源识资料" transform="translate(10.367294, 95.136000)" fill="#409EFF" fill-rule="nonzero">
                        <path d="M46.48,56.896 L59.36,56.896 L56.112,80.528 L43.232,80.528 L46.48,56.896 Z M85.344,80.528 L82.208,56.896 L95.088,56.896 L98.224,80.528 L85.344,80.528 Z M0,80.864 L10.304,48.944 L26.992,48.944 L16.576,80.864 L0,80.864 Z M0,18.592 L7.616,18.592 L0,0.112 L16.576,0.112 L26.992,25.2 L19.376,25.2 L26.992,43.68 L10.304,43.68 L0,18.592 Z M98.336,9.632 L42.784,9.632 L42.784,69.776 L37.856,80.864 L22.512,80.864 L27.44,69.776 L27.44,0.112 L98.336,0.112 L98.336,9.632 Z M78.4,68.656 C78.4,70.3733333 78.0826667,71.96 77.448,73.416 C76.8133333,74.872 75.936,76.16 74.816,77.28 C73.696,78.4 72.3893333,79.2773333 70.896,79.912 C69.4026667,80.5466667 67.7973333,80.864 66.08,80.864 L56.672,80.864 L60.368,73.136 L61.04,73.136 C61.6373333,73.136 62.1413333,72.9306667 62.552,72.52 C62.9626667,72.1093333 63.168,71.6053333 63.168,71.008 L63.168,53.872 L45.248,53.872 L45.248,16.24 L62.832,16.24 L64.176,12.656 L81.088,12.656 L79.744,16.24 L96.32,16.24 L96.32,42.224 C96.32,45.6586667 95.2746667,48.4586667 93.184,50.624 C91.0933333,52.7893333 88.4053333,53.872 85.12,53.872 L78.4,53.872 L78.4,68.656 Z M60.368,24.08 L60.368,31.136 L80.976,31.136 L80.976,24.08 L60.368,24.08 Z M60.368,45.696 L77.504,45.696 C78.4746667,45.696 79.296,45.36 79.968,44.688 C80.64,44.016 80.976,43.1573333 80.976,42.112 L80.976,38.192 L60.368,38.192 L60.368,45.696 Z" id="形状"></path>
                        <path d="M212.16,37.408 C212.16,38.976 211.824,40.544 211.152,42.112 C210.853333,42.8586667 210.498667,43.5493333 210.088,44.184 C209.677333,44.8186667 209.210667,45.4346667 208.688,46.032 C208.016,46.6293333 207.381333,47.1333333 206.784,47.544 C206.186667,47.9546667 205.477333,48.3093333 204.656,48.608 C203.386667,49.28 201.818667,49.616 199.952,49.616 L153.584,49.616 L153.584,2.128 L212.16,2.128 L212.16,37.408 Z M118.528,23.296 L140.816,23.296 L140.816,67.76 C140.816,68.5813333 141.114667,69.4026667 141.712,70.224 C142.533333,70.896 143.392,71.232 144.288,71.232 L149.664,71.232 L145.296,81.088 L137.568,81.088 C136,81.088 134.357333,80.7893333 132.64,80.192 C131.072,79.3706667 129.802667,78.4746667 128.832,77.504 C127.712,76.384 126.816,75.04 126.144,73.472 C125.472,72.128 125.136,70.5226667 125.136,68.656 L125.136,34.496 L118.528,34.496 L118.528,23.296 Z M196.704,13.216 L169.04,13.216 L169.04,38.528 L193.12,38.528 C194.016,38.528 194.874667,38.2293333 195.696,37.632 C196.368,36.8106667 196.704,35.9893333 196.704,35.168 L196.704,13.216 Z M151.792,81.088 L158.4,55.216 L174.528,55.216 L167.92,81.088 L151.792,81.088 Z M214.736,81.088 L198.608,81.088 L192,55.216 L208.016,55.216 L214.736,81.088 Z M118.64,0 L137.008,0 L145.296,17.024 L126.928,17.024 L118.64,0 Z" id="形状"></path>
                        <path d="M234.816,80.752 L273.904,60.592 L273.904,51.856 L293.504,51.856 L293.504,59.808 L304.256,59.808 L315.008,67.536 L315.008,54.096 C315.008,53.1253333 314.672,52.2853333 314,51.576 C313.328,50.8666667 312.506667,50.512 311.536,50.512 L254.64,50.512 L254.64,67.648 L239.072,67.648 L239.072,40.544 L318.256,40.544 C319.973333,40.544 321.578667,40.8613333 323.072,41.496 C324.565333,42.1306667 325.872,43.008 326.992,44.128 C328.112,45.248 328.989333,46.5546667 329.624,48.048 C330.258667,49.5413333 330.576,51.1466667 330.576,52.864 L330.576,67.648 L315.12,67.648 L333.488,80.752 L309.632,80.752 L291.488,66.64 L264.608,80.752 L234.816,80.752 Z M244.896,18.256 L260.464,18.256 L253.072,37.296 L237.504,37.296 L244.896,18.256 Z M260.464,14.224 L244.896,14.224 L237.728,0.448 L253.184,0.448 L260.464,14.224 Z M333.376,3.472 L327.104,20.72 L312.432,20.72 L315.344,13.776 L263.488,13.776 L269.76,0.224 L286.336,0.224 L284.992,3.472 L333.376,3.472 Z M305.04,20.944 L299.216,25.088 L311.984,25.088 L331.92,37.296 L310.192,37.296 L295.968,27.328 L281.744,37.296 L261.584,37.296 L285.104,20.944 L285.104,16.352 L305.04,16.352 L305.04,20.944 Z" id="形状"></path>
                        <path d="M348.528,27.776 L353.68,27.776 L349.312,2.8 L359.952,2.8 L364.32,27.776 L364.656,27.776 L364.656,0.224 L377.536,0.224 L377.536,27.776 L377.76,27.776 L382.128,2.8 L392.88,2.8 L388.512,27.776 L392.88,27.776 L392.88,37.408 L377.536,37.408 L377.536,80.752 L364.656,80.752 L364.656,37.408 L348.528,37.408 L348.528,27.776 Z M359.392,80.752 L348.64,80.752 L351.216,40.88 L361.968,40.88 L359.392,80.752 Z M390.976,40.88 L393.552,80.752 L382.8,80.752 L380.224,40.88 L390.976,40.88 Z M398.592,27.328 L406.432,27.328 L398.592,4.928 L413.152,4.928 L421.888,29.792 L413.936,29.792 L421.888,52.192 L407.328,52.192 L398.592,27.328 Z M396.352,57.68 L425.024,57.68 L425.024,1.008 L440.144,1.008 L440.144,57.68 L445.968,57.68 L445.968,66.864 L440.144,66.864 L440.144,80.864 L425.024,80.864 L425.024,66.864 L396.352,66.864 L396.352,57.68 Z" id="形状"></path>
                    </g>
                </g>
            </g>
        </g>
    </g>
</svg>