<svg xmlns="http://www.w3.org/2000/svg"><defs><font id="glyphicons_halflingsregular" horiz-adv-x="1200"><font-face units-per-em="1200" ascent="960" descent="-240"/><missing-glyph horiz-adv-x="500"/><glyph horiz-adv-x="0"/><glyph horiz-adv-x="400"/><glyph/><glyph unicode="*" d="M6e2 11e2q15 0 34-1.5t30-3.5l11-1q10-2 17.5-10.5t7.5-18.5V841l158 158q7 7 18 8t19-6l106-106q7-8 6-19t-8-18L841 7e2h224q10 0 18.5-7.5T1094 675q6-41 6-75 0-15-1.5-34t-3.5-30l-1-11q-2-10-10.5-17.5T1065 5e2H841l158-158q7-7 8-18t-6-19L895 199q-8-7-19-6t-18 8L7e2 359V135q0-10-7.5-18.5T675 106q-41-6-75-6-15 0-34 1.5t-30 3.5l-11 1q-10 2-17.5 10.5T5e2 135v224L342 201q-7-7-18-8t-19 6L199 305q-7 8-6 19t8 18l158 158H135q-10 0-18.5 7.5T106 525q-6 41-6 75 0 15 1.5 34t3.5 30l1 11q2 10 10.5 17.5T135 7e2h224L201 858q-7 7-8 18t6 19l106 106q8 7 19 6t18-8l158-158v224q0 10 7.5 18.5T525 1094q41 6 75 6z"/><glyph unicode="+" d="M450 11e2h2e2q21 0 35.5-14.5T7e2 1050V7e2h350q21 0 35.5-14.5T11e2 650V450q0-21-14.5-35.5T1050 4e2H7e2V50q0-21-14.5-35.5T650 0H450q-21 0-35.5 14.5T4e2 50v350H50q-21 0-35.5 14.5T0 450v2e2q0 21 14.5 35.5T50 7e2h350v350q0 21 14.5 35.5T450 11e2z"/><glyph unicode="&#160;"/><glyph unicode="&#165;" d="M825 11e2h250q10 0 12.5-5t-5.5-13L718 718q-6-6-11-18h268q10 0 13-6t-3-14L865 520q-6-8-18-14t-22-6H7e2V4e2h275q10 0 13-6t-3-14L865 220q-6-8-18-14t-22-6H7e2V26q0-11-7.5-18.5T674 0H526q-11 0-18.5 7.5T5e2 26v174H225q-10 0-13 6t3 14l120 160q6 8 18 14t22 6h125v1e2H225q-10 0-13 6t3 14l120 160q6 8 18 14t22 6h118q-5 12-11 18l-364 364q-8 8-5.5 13t12.5 5h250q25 0 43-18l164-164q8-8 18-8t18 8l164 164q18 18 43 18z"/><glyph unicode="&#8192;" horiz-adv-x="650"/><glyph unicode="&#8193;" horiz-adv-x="1300"/><glyph unicode="&#8194;" horiz-adv-x="650"/><glyph unicode="&#8195;" horiz-adv-x="1300"/><glyph unicode="&#8196;" horiz-adv-x="433"/><glyph unicode="&#8197;" horiz-adv-x="325"/><glyph unicode="&#8198;" horiz-adv-x="216"/><glyph unicode="&#8199;" horiz-adv-x="216"/><glyph unicode="&#8200;" horiz-adv-x="162"/><glyph unicode="&#8201;" horiz-adv-x="260"/><glyph unicode="&#8202;" horiz-adv-x="72"/><glyph unicode="&#8239;" horiz-adv-x="260"/><glyph unicode="&#8287;" horiz-adv-x="325"/><glyph unicode="&#8364;" d="M744 1198q242 0 354-189 60-104 66-209H983q0 45-17.5 82.5T922 944t-58 40.5-60.5 24-51.5 7.5q-19 0-40.5-5.5T662 990t-53-38-49-62.5-39-89.5h379L8e2 7e2H5e2q-6-50-6-1e2h406L8e2 5e2H5e2q9-74 33-132t52.5-91 61.5-54.5 59-29 47-7.5q22 0 50.5 7.5T864 218t58 41 43.5 61 17.5 80h174q-30-171-128-278Q922 5 755 5 549 5 431 163q-36 48-69 133t-45 204H1e2l1e2 1e2h112q1 47 6 1e2H1e2l1e2 1e2h134q20 87 51 153.5t62 103.5q117 141 297 141z"/><glyph unicode="&#8381;" d="M428 12e2h350q67 0 120-13t86-31 57-49.5 35-56.5 17-64.5 6.5-60.5.5-57v-16.5V835q0-36-.5-57t-6.5-61-17-65-35-57-57-50.5-86-31.5-120-13H6e2l-2-1e2h288q10 0 13-6t-3-14L776 220q-6-8-18-14t-22-6H598V25q0-11-5.5-18T577 0H428q-10 0-17.5 7.5T403 25v175H136q-10 0-13 6t3 14l120 160q6 8 18 14t22 6h117v1e2H136q-10 0-13 6t3 14l120 160q6 8 18 14t22 6h117v475q0 10 7.5 17.5t17.5 7.5zM6e2 1e3V7e2h203q64 0 86.5 33T912 852q0 84-22.5 116T803 1e3H6e2z"/><glyph unicode="&#8722;" d="M250 7e2h8e2q21 0 35.5-14.5T11e2 650V450q0-21-14.5-35.5T1050 4e2H250q-21 0-35.5 14.5T2e2 450v2e2q0 21 14.5 35.5T250 7e2z"/><glyph unicode="&#8987;" d="M1e3 12e2v-150q0-21-14.5-35.5T950 1e3h-50V9e2q0-91-49.5-165.5T720 625q81-35 130.5-109.5T9e2 350V2e2h50q21 0 35.5-14.5T1e3 150V0H2e2v150q0 21 14.5 35.5T250 2e2h50v150q0 91 49.5 165.5T480 625q-81 35-130.5 109.5T3e2 9e2v1e2h-50q-21 0-35.5 14.5T2e2 1050v150h8e2zM4e2 1e3V9e2q0-60 32.5-109.5T520 717q28-12 44-37t16-55-16-55-44-37q-55-24-87.5-73.5T4e2 350V2e2h4e2v150q0 60-32.5 109.5T680 533q-28 12-44 37t-16 55 16 55 44 37q55 24 87.5 73.5T8e2 9e2v1e2H4e2z"/><glyph unicode="&#9724;" horiz-adv-x="500" d="M0 0z"/><glyph unicode="&#9729;" d="M503 1089q110 0 200.5-59.5T838 873q44 14 90 14 120 0 205-86.5t85-206.5q0-121-85-207.5T928 3e2H178q-79 0-135.5 57T-14 494q0 69 42.5 122.5T137 684q-2 12-2 37 0 153 108 260.5T503 1089z"/><glyph unicode="&#9978;" d="M774 1193.5q16-9.5 20.5-27T789 1133L653 946l467-746h30q20 0 35-18.5t15-39.5v-42H0v42q0 21 15 39.5T50 2e2h30l468 746-135 183q-10 16-5.5 34t20.5 28 34 5.5 28-20.5l111-148 112 150q9 16 27 20.5t34-5zM6e2 2e2h377L795 312 6e2 846V2e2z"/><glyph unicode="&#9993;" d="M25 11e2h1150q10 0 12.5-5t-5.5-13L618 515q-8-8-18-8t-18 8L18 1082q-8 8-5.5 13t12.5 5zM18 882l264-264q8-8 8-18t-8-18L18 318q-8-8-13-5.5T0 325v550q0 10 5 12.5t13-5.5zM918 618l264 264q8 8 13 5.5t5-12.5V325q0-10-5-12.5t-13 5.5L918 582q-8 8-8 18t8 18zM818 482l364-364q8-8 5.5-13t-12.5-5H25q-10 0-12.5 5t5.5 13l364 364q8 8 18 8t18-8l164-164q8-8 18-8t18 8l164 164q8 8 18 8t18-8z"/><glyph unicode="&#9999;" d="M1011 1210q19 0 33-13l153-153q13-14 13-33t-13-33l-99-92-214 214 95 96q13 14 32 14zm2-410-615-614-214 214 614 614zM317 96-16-16 94 319z"/><glyph unicode="&#xe001;" d="M7e2 650V1e2h250q21 0 35.5-14.5T1e3 50V0H2e2v50q0 21 14.5 35.5T250 1e2h250v550L0 12e2h12e2z"/><glyph unicode="&#xe002;" d="M368 1017l645 163q39 15 63 0t24-49V3e2q0-55-41.5-95.5T947 141q-79-25-147-4.5t-86 75T739.5 323 862 405q72 24 138 8v521L4e2 779V173q0-42-44-90T247 14q-79-26-147-5.5T14 84t25.5 111.5T162 278q72 24 138 7v639q0 38 14.5 59t53.5 34z"/><glyph unicode="&#xe003;" d="M5e2 1191q1e2.0 191-39t156.5-104.5T952 891t39-191l-1-2 1-5q0-141-78-262l275-274q23-26 22.5-44.5T1188 70l-59-58q-26-20-46.5-20T1043 12L768 286q-119-77-261-77l-5 1-2-1q-1e2.0-191 39T152.5 352.5 48 509 9 7e2t39 191 104.5 156.5T309 1152t191 39zm0-169q-88 0-162-43T221 862t-43-162 43-162 117-117 162-43 162 43 117 117 43 162-43 162-117 117-162 43z"/><glyph unicode="&#xe005;" d="M649 949q48 68 109.5 104t121.5 38.5 118.5-20 102.5-64 71-100.5 27-123q0-57-33.5-117.5t-94-124.5T945 414.5 795 262 649 88q-62 85-145.5 174t-150 152.5T227 542t-93.5 124.5T1e2 784q0 64 28 123t73 100.5 104 64 119 20 120.5-38.5T649 949z"/><glyph unicode="&#xe006;" d="M407 8e2l131 353q7 19 17.5 19t17.5-19l129-353h421q21 0 24-8.5t-14-20.5L791 522l130-401q7-20-.5-25.5T896 102L553 348 211 101q-17-12-24.5-6.5T186 120l130 4e2-347 251q-17 12-14 20.5t23 8.5h429z"/><glyph unicode="&#xe007;" d="M407 8e2l131 353q7 19 17.5 19t17.5-19l129-353h421q21 0 24-8.5t-14-20.5L791 522l130-401q7-20-.5-25.5T896 102L553 348 211 101q-17-12-24.5-6.5T186 120l130 4e2-347 251q-17 12-14 20.5t23 8.5h429zm70-1e2H237l197-142-74-226 193 139 195-140-74 229 192 140H632l-78 211z"/><glyph unicode="&#xe008;" d="M6e2 12e2q124 0 212-88t88-212V650q0-46-31-98t-69-52v-75q0-10 6-21.5t15-17.5l358-230q9-5 15-16.5t6-21.5V25q0-10-7.5-17.5T1175 0H25Q15 0 7.5 7.5T0 25v93q0 10 6 21.5T21 156l358 230q9 6 15 17.5t6 21.5v75q-38 0-69 52t-31 98v250q0 124 88 212t212 88z"/><glyph unicode="&#xe009;" d="M25 11e2h1150q10 0 17.5-7.5t7.5-17.5V25q0-10-7.5-17.5T1175 0H25Q15 0 7.5 7.5T0 25v1050q0 10 7.5 17.5T25 11e2zm75-1e2V9e2h1e2v1e2H1e2zm775 0H325q-10 0-17.5-7.5T3e2 975V625q0-10 7.5-17.5T325 6e2h550q10 0 17.5 7.5T9e2 625v350q0 10-7.5 17.5T875 1e3zm125 0V9e2h1e2v1e2H1e3zM1e2 8e2V7e2h1e2v1e2H1e2zm9e2.0V7e2h1e2v1e2H1e3zM1e2 6e2V5e2h1e2v1e2H1e2zm9e2.0V5e2h1e2v1e2H1e3zM875 5e2H325q-10 0-17.5-7.5T3e2 475V125q0-10 7.5-17.5T325 1e2h550q10 0 17.5 7.5T9e2 125v350q0 10-7.5 17.5T875 5e2zM1e2 4e2V3e2h1e2v1e2H1e2zm9e2.0V3e2h1e2v1e2H1e3zM1e2 2e2V1e2h1e2v1e2H1e2zm9e2.0V1e2h1e2v1e2H1e3z"/><glyph unicode="&#xe010;" d="M50 11e2h4e2q21 0 35.5-14.5T5e2 1050V650q0-21-14.5-35.5T450 6e2H50q-21 0-35.5 14.5T0 650v4e2q0 21 14.5 35.5T50 11e2zm6e2.0h4e2q21 0 35.5-14.5t14.5-35.5V650q0-21-14.5-35.5T1050 6e2H650q-21 0-35.5 14.5T6e2 650v4e2q0 21 14.5 35.5T650 11e2zM50 5e2h4e2q21 0 35.5-14.5T5e2 450V50q0-21-14.5-35.5T450 0H50Q29 0 14.5 14.5T0 50v4e2q0 21 14.5 35.5T50 5e2zm6e2.0h4e2q21 0 35.5-14.5T11e2 450V50q0-21-14.5-35.5T1050 0H650q-21 0-35.5 14.5T6e2 50v4e2q0 21 14.5 35.5T650 5e2z"/><glyph unicode="&#xe011;" d="M50 11e2h2e2q21 0 35.5-14.5T3e2 1050V850q0-21-14.5-35.5T250 8e2H50q-21 0-35.5 14.5T0 850v2e2q0 21 14.5 35.5T50 11e2zm4e2.0h2e2q21 0 35.5-14.5T7e2 1050V850q0-21-14.5-35.5T650 8e2H450q-21 0-35.5 14.5T4e2 850v2e2q0 21 14.5 35.5T450 11e2zm4e2.0h2e2q21 0 35.5-14.5t14.5-35.5V850q0-21-14.5-35.5T1050 8e2H850q-21 0-35.5 14.5T8e2 850v2e2q0 21 14.5 35.5T850 11e2zM50 7e2h2e2q21 0 35.5-14.5T3e2 650V450q0-21-14.5-35.5T250 4e2H50q-21 0-35.5 14.5T0 450v2e2q0 21 14.5 35.5T50 7e2zm4e2.0h2e2q21 0 35.5-14.5T7e2 650V450q0-21-14.5-35.5T650 4e2H450q-21 0-35.5 14.5T4e2 450v2e2q0 21 14.5 35.5T450 7e2zm4e2.0h2e2q21 0 35.5-14.5T11e2 650V450q0-21-14.5-35.5T1050 4e2H850q-21 0-35.5 14.5T8e2 450v2e2q0 21 14.5 35.5T850 7e2zM50 3e2h2e2q21 0 35.5-14.5T3e2 250V50q0-21-14.5-35.5T250 0H50Q29 0 14.5 14.5T0 50v2e2q0 21 14.5 35.5T50 3e2zm4e2.0h2e2q21 0 35.5-14.5T7e2 250V50q0-21-14.5-35.5T650 0H450q-21 0-35.5 14.5T4e2 50v2e2q0 21 14.5 35.5T450 3e2zm4e2.0h2e2q21 0 35.5-14.5T11e2 250V50q0-21-14.5-35.5T1050 0H850q-21 0-35.5 14.5T8e2 50v2e2q0 21 14.5 35.5T850 3e2z"/><glyph unicode="&#xe012;" d="M50 11e2h2e2q21 0 35.5-14.5T3e2 1050V850q0-21-14.5-35.5T250 8e2H50q-21 0-35.5 14.5T0 850v2e2q0 21 14.5 35.5T50 11e2zm4e2.0h7e2q21 0 35.5-14.5t14.5-35.5V850q0-21-14.5-35.5T1150 8e2H450q-21 0-35.5 14.5T4e2 850v2e2q0 21 14.5 35.5T450 11e2zM50 7e2h2e2q21 0 35.5-14.5T3e2 650V450q0-21-14.5-35.5T250 4e2H50q-21 0-35.5 14.5T0 450v2e2q0 21 14.5 35.5T50 7e2zm4e2.0h7e2q21 0 35.5-14.5T12e2 650V450q0-21-14.5-35.5T1150 4e2H450q-21 0-35.5 14.5T4e2 450v2e2q0 21 14.5 35.5T450 7e2zM50 3e2h2e2q21 0 35.5-14.5T3e2 250V50q0-21-14.5-35.5T250 0H50Q29 0 14.5 14.5T0 50v2e2q0 21 14.5 35.5T50 3e2zm4e2.0h7e2q21 0 35.5-14.5T12e2 250V50q0-21-14.5-35.5T1150 0H450q-21 0-35.5 14.5T4e2 50v2e2q0 21 14.5 35.5T450 3e2z"/><glyph unicode="&#xe013;" d="M465 477l571 571q8 8 18 8t17-8l177-177q8-7 8-17t-8-18L465 52q-7-8-17.5-8T430 52L46 436q-8 8-8 18t8 17l177 177q7 8 17 8t18-8l171-171q7-7 18-7t18 7z"/><glyph unicode="&#xe014;" d="M904 1083l178-179q8-8 8-18.5t-8-17.5L815 6e2l267-268q8-7 8-17.5t-8-18.5L904 118q-8-8-18.5-8t-17.5 8L6e2 385 332 118q-7-8-17.5-8t-18.5 8L118 296q-8 8-8 18.5t8 17.5l267 268-267 268q-8 7-8 17.5t8 18.5l178 178q8 8 18.5 8t17.5-8l268-267 268 268q7 7 17.5 7t18.5-7z"/><glyph unicode="&#xe015;" d="M507 1177q98 0 187.5-38.5T849 1035t103.5-154.5T991 693q0-141-78-262l3e2-299q8-8 8-18.5t-8-18.5L1104-13q-7-8-17.5-8t-18.5 8L768 286q-119-77-261-77-98 0-188 38.5t-154.5 103T61.5 505 23 693t38.5 187.5 103 154.5T319 1138.5t188 38.5zm-.5-154q-89.5.0-165.5-44T221 858.5t-44-166T221 527t120-120 165.5-44 166 44T793 527t44 165.5-44 166T672.5 979t-166 44zM425 9e2h150q10 0 17.5-7.5T6e2 875v-75h75q10 0 17.5-7.5T7e2 775V625q0-10-7.5-17.5T675 6e2h-75v-75q0-10-7.5-17.5T575 5e2H425q-10 0-17.5 7.5T4e2 525v75h-75q-10 0-17.5 7.5T3e2 625v150q0 10 7.5 17.5T325 8e2h75v75q0 10 7.5 17.5T425 9e2z"/><glyph unicode="&#xe016;" d="M507 1177q98 0 187.5-38.5T849 1035t103.5-154.5T991 693q0-141-78-262l3e2-299q8-8 8-18.5t-8-18.5L1104-13q-7-8-17.5-8t-18.5 8L768 286q-119-77-261-77-98 0-188 38.5t-154.5 103T61.5 505 23 693t38.5 187.5 103 154.5T319 1138.5t188 38.5zm-.5-154q-89.5.0-165.5-44T221 858.5t-44-166T221 527t120-120 165.5-44 166 44T793 527t44 165.5-44 166T672.5 979t-166 44zM325 8e2h350q10 0 17.5-7.5T7e2 775V625q0-10-7.5-17.5T675 6e2H325q-10 0-17.5 7.5T3e2 625v150q0 10 7.5 17.5T325 8e2z"/><glyph unicode="&#xe017;" d="M550 12e2h1e2q21 0 35.5-14.5T7e2 1150V750q0-21-14.5-35.5T650 7e2H550q-21 0-35.5 14.5T5e2 750v4e2q0 21 14.5 35.5T550 12e2zM8e2 975v166q167-62 272-209.5T1177 6e2q0-117-45.5-224t-123-184.5T824 68.5 6e2 23 376 68.5t-184.5 123T68.5 376 23 6e2q0 184 105 331.5T4e2 1141V975q-103-55-165-155t-62-220q0-116 57-214.5T385.5 230 6e2 173t214.5 57T970 385.5t57 214.5q0 120-62 220T8e2 975z"/><glyph unicode="&#xe018;" d="M1025 12e2h150q10 0 17.5-7.5t7.5-17.5V25q0-10-7.5-17.5T1175 0h-150q-10 0-17.5 7.5T1e3 25v1150q0 10 7.5 17.5t17.5 7.5zM725 8e2h150q10 0 17.5-7.5T9e2 775V25q0-10-7.5-17.5T875 0H725q-10 0-17.5 7.5T7e2 25v750q0 10 7.5 17.5T725 8e2zM425 5e2h150q10 0 17.5-7.5T6e2 475V25q0-10-7.5-17.5T575 0H425q-10 0-17.5 7.5T4e2 25v450q0 10 7.5 17.5T425 5e2zM125 3e2h150q10 0 17.5-7.5T3e2 275V25q0-10-7.5-17.5T275 0H125q-10 0-17.5 7.5T1e2 25v250q0 10 7.5 17.5T125 3e2z"/><glyph unicode="&#xe019;" d="M6e2 1174q33 0 74-5l38-152 5-1q49-14 94-39l5-2 134 80q61-48 104-105l-80-134 3-5q25-44 39-93l1-6 152-38q5-43 5-73 0-34-5-74l-152-38-1-6q-15-49-39-93l-3-5 80-134q-48-61-104-105l-134 81-5-3q-44-25-94-39l-5-2-38-151q-43-5-74-5-33 0-74 5l-38 151-5 2q-49 14-94 39l-5 3-134-81q-60 48-104 105l80 134-3 5q-25 45-38 93l-2 6-151 38q-6 42-6 74 0 33 6 73l151 38 2 6q13 48 38 93l3 5-80 134q47 61 105 105l133-80 5 2q45 25 94 39l5 1 38 152q43 5 74 5zm0-359q-89 0-152-63t-63-151.5T448 449t152-63 152 63 63 151.5T752 752t-152 63z"/><glyph unicode="&#xe020;" d="M5e2 13e2h3e2q41 0 70.5-29.5T9e2 12e2v-1e2h275q10 0 17.5-7.5t7.5-17.5v-75H1e2v75q0 10 7.5 17.5t17.5 7.5h275v1e2q0 41 29.5 70.5T5e2 13e2zm0-1e2v-1e2h3e2v1e2H5e2zm6e2-3e2V1e2q0-41-29.5-70.5T1e3.0H3e2q-41 0-70.5 29.5T2e2 1e2v8e2h9e2zM3e2 8e2V1e2h1e2v7e2H3e2zm2e2.0V1e2h1e2v7e2H5e2zm2e2.0V1e2h1e2v7e2H7e2zm2e2.0V1e2h1e2v7e2H9e2z"/><glyph unicode="&#xe021;" d="M18 618l620 608q8 7 18.5 7t17.5-7l608-608q8-8 5.5-13t-12.5-5h-175V25q0-10-7.5-17.5T1075 0H825q-10 0-17.5 7.5T8e2 25v375H5e2V25q0-10-7.5-17.5T475 0H225q-10 0-17.5 7.5T2e2 25v575H25q-10 0-12.5 5t5.5 13z"/><glyph unicode="&#xe022;" d="M6e2 12e2V8e2q0-41 29.5-70.5T7e2 7e2h3e2V50q0-21-14.5-35.5T950 0H150q-21 0-35.5 14.5T1e2 50v11e2q0 21 14.5 35.5T150 12e2h450zM1e3 8e2H750q-21 0-35.5 14.5T7e2 850v250z"/><glyph unicode="&#xe023;" d="M6e2 1177q117 0 224-45.5t184.5-123 123-184.5 45.5-224-45.5-224-123-184.5T824 68.5 6e2 23 376 68.5t-184.5 123T68.5 376 23 6e2t45.5 224 123 184.5 184.5 123 224 45.5zm0-150q-116 0-214.5-57T230 814.5 173 6e2t57-214.5T385.5 230 6e2 173t214.5 57T970 385.5t57 214.5-57 214.5T814.5 970 6e2 1027zM525 9e2h50q10 0 17.5-7.5T6e2 875V6e2h175q10 0 17.5-7.5T8e2 575v-50q0-10-7.5-17.5T775 5e2H525q-10 0-17.5 7.5T5e2 525v350q0 10 7.5 17.5T525 9e2z"/><glyph unicode="&#xe024;" d="M13e2.0H762l-41 4e2H479L438 0h-538l431 12e2h209l-21-3e2h162l-20 3e2h208zM515 8e2l-27-3e2h224l-27 3e2H515z"/><glyph unicode="&#xe025;" d="M550 12e2h2e2q21 0 35.5-14.5T8e2 1150V7e2h191q20 0 25.5-11.5T1009 661L682 261q-13-16-32-16t-32 16L291 661q-13 16-7.5 27.5T309 7e2h191v450q0 21 14.5 35.5T550 12e2zm575-8e2h50q10 0 17.5-7.5t7.5-17.5V25q0-10-7.5-17.5T1175 0H125q-10 0-17.5 7.5T1e2 25v350q0 10 7.5 17.5T125 4e2h50q10 0 17.5-7.5T2e2 375V2e2h9e2v175q0 10 7.5 17.5t17.5 7.5z"/><glyph unicode="&#xe026;" d="M6e2 1177q117 0 224-45.5t184.5-123 123-184.5 45.5-224-45.5-224-123-184.5T824 68.5 6e2 23 376 68.5t-184.5 123T68.5 376 23 6e2t45.5 224 123 184.5 184.5 123 224 45.5zm0-150q-116 0-214.5-57T230 814.5 173 6e2t57-214.5T385.5 230 6e2 173t214.5 57T970 385.5t57 214.5-57 214.5T814.5 970 6e2 1027zM525 9e2h150q10 0 17.5-7.5T7e2 875V6e2h137q21 0 26-11.5t-8-27.5L632 286q-13-16-32-16t-32 16L345 561q-13 16-8 27.5t26 11.5h137v275q0 10 7.5 17.5T525 9e2z"/><glyph unicode="&#xe027;" d="M6e2 1177q117 0 224-45.5t184.5-123 123-184.5 45.5-224-45.5-224-123-184.5T824 68.5 6e2 23 376 68.5t-184.5 123T68.5 376 23 6e2t45.5 224 123 184.5 184.5 123 224 45.5zm0-150q-116 0-214.5-57T230 814.5 173 6e2t57-214.5T385.5 230 6e2 173t214.5 57T970 385.5t57 214.5-57 214.5T814.5 970 6e2 1027zm32-113 223-275q13-16 8-27.5T837 6e2H7e2V325q0-10-7.5-17.5T675 3e2H525q-10 0-17.5 7.5T5e2 325v275H363q-21 0-26 11.5t8 27.5l223 275q13 16 32 16t32-16z"/><glyph unicode="&#xe028;" d="M225 12e2h750q10 0 19.5-7t12.5-17l186-652q7-24 7-49V50q0-12-4-27t-9-17q-12-6-37-6H50Q38 0 23 4T6 12Q0 25 0 50l1 425q0 25 7 49l185 652q3 10 12.5 17t19.5 7zM878 1e3H322q-10 0-19-7t-11-18l-87-450q-2-11 4-18t16-7h150q10 0 19.5-7t11.5-17l38-152q2-10 11.5-17t19.5-7h250q10 0 19.5 7t11.5 17l38 152q2 10 11.5 17t19.5 7h150q10 0 16 7t4 18l-87 450q-2 11-11 18t-19 7z"/><glyph unicode="&#xe029;" d="M6e2 1177q117 0 224-45.5t184.5-123 123-184.5 45.5-224-45.5-224-123-184.5T824 68.5 6e2 23 376 68.5t-184.5 123T68.5 376 23 6e2t45.5 224 123 184.5 184.5 123 224 45.5zm0-150q-116 0-214.5-57T230 814.5 173 6e2t57-214.5T385.5 230 6e2 173t214.5 57T970 385.5t57 214.5-57 214.5T814.5 970 6e2 1027zM540 820l253-190q17-12 17-30t-17-30L540 380q-16-12-28-6.5T5e2 4e2v4e2q0 21 12 26.5t28-6.5z"/><glyph unicode="&#xe030;" d="M947 1060l135 135q7 7 12.5 5t5.5-13V825q0-10-7.5-17.5T1075 8e2H713q-11 0-13 5.5t5 12.5l133 133q-109 76-238 76-116 0-214.5-57T230 814.5 173 6e2t57-214.5T385.5 230 6e2 173t214.5 57T970 385.5t57 214.5h150q0-117-45.5-224t-123-184.5T824 68.5 6e2 23 376 68.5t-184.5 123T68.5 376 23 6e2t45.5 224 123 184.5 184.5 123 224 45.5q192 0 347-117z"/><glyph unicode="&#xe031;" d="M947 1060l135 135q7 7 12.5 5t5.5-13V826q0-11-7.5-18.5T1074 8e2H713q-11 0-13 5.5t5 12.5l134 134q-110 75-239 75-116 0-214.5-57T230 814.5 173 6e2H23q0 117 45.5 224t123 184.5 184.5 123 224 45.5q192 0 347-117zm80-460h150q0-117-45.5-224t-123-184.5T824 68.5 6e2 23q-192 0-348 118L118 7q-7-8-12.5-5.5T1e2 14v360q0 11 7.5 18.5T126 4e2h360q10 0 12.5-5.5T493 382L360 249q110-76 240-76 116 0 214.5 57T970 385.5t57 214.5z"/><glyph unicode="&#xe032;" d="M125 12e2h1050q10 0 17.5-7.5t7.5-17.5V25q0-10-7.5-17.5T1175 0H125q-10 0-17.5 7.5T1e2 25v1150q0 10 7.5 17.5t17.5 7.5zm950-2e2H225q-10 0-17.5-7.5T2e2 975V125q0-10 7.5-17.5T225 1e2h850q10 0 17.5 7.5t7.5 17.5v850q0 10-7.5 17.5T1075 1e3zM325 9e2h50q10 0 17.5-7.5T4e2 875v-50q0-10-7.5-17.5T375 8e2h-50q-10 0-17.5 7.5T3e2 825v50q0 10 7.5 17.5T325 9e2zm2e2.0h450q10 0 17.5-7.5T1e3 875v-50q0-10-7.5-17.5T975 8e2H525q-10 0-17.5 7.5T5e2 825v50q0 10 7.5 17.5T525 9e2zM325 7e2h50q10 0 17.5-7.5T4e2 675v-50q0-10-7.5-17.5T375 6e2h-50q-10 0-17.5 7.5T3e2 625v50q0 10 7.5 17.5T325 7e2zm2e2.0h450q10 0 17.5-7.5T1e3 675v-50q0-10-7.5-17.5T975 6e2H525q-10 0-17.5 7.5T5e2 625v50q0 10 7.5 17.5T525 7e2zM325 5e2h50q10 0 17.5-7.5T4e2 475v-50q0-10-7.5-17.5T375 4e2h-50q-10 0-17.5 7.5T3e2 425v50q0 10 7.5 17.5T325 5e2zm2e2.0h450q10 0 17.5-7.5T1e3 475v-50q0-10-7.5-17.5T975 4e2H525q-10 0-17.5 7.5T5e2 425v50q0 10 7.5 17.5T525 5e2zM325 3e2h50q10 0 17.5-7.5T4e2 275v-50q0-10-7.5-17.5T375 2e2h-50q-10 0-17.5 7.5T3e2 225v50q0 10 7.5 17.5T325 3e2zm2e2.0h450q10 0 17.5-7.5T1e3 275v-50q0-10-7.5-17.5T975 2e2H525q-10 0-17.5 7.5T5e2 225v50q0 10 7.5 17.5T525 3e2z"/><glyph unicode="&#xe033;" d="M9e2 8e2v2e2q0 83-58.5 141.5T7e2 12e2H4e2q-82 0-141-59t-59-141V8e2H1e2q-41 0-70.5-29.5T0 7e2V1e2q0-41 29.5-70.5T1e2.0h9e2q41 0 70.5 29.5T11e2 1e2v6e2q0 41-29.5 70.5T1e3 8e2H9e2zm-5e2.0v150q0 21 15 35.5t35 14.5h2e2q20 0 35-14.5t15-35.5V8e2H4e2z"/><glyph unicode="&#xe034;" d="M125 11e2h50q10 0 17.5-7.5t7.5-17.5V0H1e2v1075q0 10 7.5 17.5t17.5 7.5zm950-48q4 0 9-2 16-6 16-23V606q0-6-3-12-33-59-66.5-99T965 437t-56.5-24.5T856 406q-26 0-57.5 6.5T746 426t-60 21q-41 15-63 22.5t-57.5 15T5e2 492q-85 0-160-57-7-5-15-5-6 0-11 3-14 7-14 22v438q22 55 82 98.5t119 46.5q23 2 43 .5t43-7 32.5-8.5 38-13 32.5-11q41-14 63.5-21t57-14 63.5-7q103 0 183 87 7 8 18 8z"/><glyph unicode="&#xe035;" d="M6e2 1175q116 0 227-49.5t192.5-131 131-192.5 49.5-227V275q0-10-7.5-17.5T1175 250h-50q-10 0-17.5 7.5T11e2 275v3e2q0 127-70.5 231.5T845 968t-245 57-245-57-184.5-161.5T1e2 575V275q0-10-7.5-17.5T75 250H25q-10 0-17.5 7.5T0 275v3e2q0 116 49.5 227t131 192.5 192.5 131 227 49.5zM220 5e2h160q8 0 14-6t6-14V20q0-8-6-14t-14-6H220q-8 0-14 6t-6 14v460q0 8 6 14t14 6zm6e2.0h160q8 0 14-6t6-14V20q0-8-6-14t-14-6H820q-8 0-14 6t-6 14v460q0 8 6 14t14 6z"/><glyph unicode="&#xe036;" d="M321 814l258 172q9 6 15 2.5t6-13.5V225q0-10-6-13.5t-15 2.5L321 386q-21 14-46 14H25q-10 0-17.5 7.5T0 425v350q0 10 7.5 17.5T25 8e2h250q25 0 46 14zM9e2 668l120 120q7 7 17 7t17-7l34-34q7-7 7-17t-7-17L968 6e2l120-120q7-7 7-17t-7-17l-34-34q-7-7-17-7t-17 7L9e2 531 780 412q-7-7-17-7t-17 7l-34 34q-7 7-7 17t7 17l119 120-119 120q-7 7-7 17t7 17l34 34q7 8 17 8t17-8z"/><glyph unicode="&#xe037;" d="M321 814l258 172q9 6 15 2.5t6-13.5V225q0-10-6-13.5t-15 2.5L321 386q-21 14-46 14H25q-10 0-17.5 7.5T0 425v350q0 10 7.5 17.5T25 8e2h250q25 0 46 14zm445 86h4q10-1 16-10 96-129 96-290 0-154-90-281-6-9-17-10l-3-1q-9 0-16 6l-29 23q-7 7-8.5 16.5T723 371q72 103 72 229 0 132-78 238-6 8-4.5 18t9.5 17l29 22q7 5 15 5z"/><glyph unicode="&#xe038;" d="M967 1004h3q11-1 17-10 135-179 135-396 0-105-34-206.5T990 206q-7-9-17-10h-3q-9 0-16 6l-42 34q-8 6-9 16t5 18q111 150 111 328 0 90-29.5 176T905 931q-6 9-5 19t10 16l42 33q7 5 15 5zM321 814l258 172q9 6 15 2.5t6-13.5V225q0-10-6-13.5t-15 2.5L321 386q-21 14-46 14H25q-10 0-17.5 7.5T0 425v350q0 10 7.5 17.5T25 8e2h250q25 0 46 14zm445 86h4q10-1 16-10 96-129 96-290 0-154-90-281-6-9-17-10l-3-1q-9 0-16 6l-29 23q-7 7-8.5 16.5T723 371q72 103 72 229 0 132-78 238-6 8-4.5 18.5T722 873l29 22q7 5 15 5z"/><glyph unicode="&#xe039;" d="M5e2 9e2h1e2V8e2H5e2V7e2H1e2V6e2H0v6e2h5e2V9e2zm7e2-2e2H1e3V6e2h2e2V4e2H9e2v3e2H7e2v3e2H6e2v2e2h6e2V7e2zM1e2 11e2V8e2h3e2v3e2H1e2zm7e2.0V8e2h3e2v3e2H8e2zM3e2 9e2H2e2v1e2h1e2V9e2zm7e2.0H9e2v1e2h1e2V9e2zM3e2 5e2h2e2V0H0v5e2h2e2v1e2h1e2V5e2zM8e2 3e2h2e2V2e2H9e2V1e2H7e2v1e2H6e2v1e2h1e2v2e2H5e2v1e2h3e2V3e2zM1e2 4e2V1e2h3e2v3e2H1e2zM3e2 2e2H2e2v1e2h1e2V2e2zm9e2.0h-1e2v1e2h1e2V2e2zM7e2.0H6e2v1e2h1e2V0zm5e2.0H9e2v1e2h3e2V0z"/><glyph unicode="&#xe040;" d="M1e2 2e2H0v1e3h1e2V2e2zm2e2.0H2e2v1e3h1e2V2e2zm4e2.0H5e2v1e3h2e2V2e2zm2e2.0H8e2v1e3h1e2V2e2zm3e2.0H1e3v1e3h2e2V2e2zM4e2.0H1e2v1e2h3e2V0zM6e2.0H5e2v91h1e2V0zM8e2.0H7e2v91h1e2V0zm3e2.0H9e2v91h2e2V0z"/><glyph unicode="&#xe041;" d="M5e2 12e2l682-682q8-8 8-18t-8-18L718 18q-8-8-18-8t-18 8L0 7e2l1 475q0 10 7.5 17.5T26 12e2h474zM319.5 1024.5q-29.5 29.5-71 29.5t-71-29.5T148 953t29.5-71.5 71-29.5 71 29.5T349 953t-29.5 71.5z"/><glyph unicode="&#xe042;" d="M5e2 12e2l682-682q8-8 8-18t-8-18L718 18q-8-8-18-8t-18 8L0 7e2l1 475q0 10 7.5 17.5T26 12e2h474zm3e2.0 682-682q8-8 8-18t-8-18L1018 18q-8-8-18-8t-18 8l-56 56 424 426-7e2 7e2h150zM319.5 1024.5q-29.5 29.5-71 29.5t-71-29.5T148 953t29.5-71.5 71-29.5 71 29.5T349 953t-29.5 71.5z"/><glyph unicode="&#xe043;" d="M3e2 12e2h825q75 0 75-75V225q0-25-18-43l-64-64q-8-8-13-5.5t-5 12.5v950q0 10-7.5 17.5t-17.5 7.5H375q-25 0-43-18l-64-64q-8-8-5.5-13t12.5-5h7e2q10 0 17.5-7.5T1e3 975V25q0-10-7.5-17.5T975 0H125q-10 0-17.5 7.5T1e2 25v975q0 25 18 43l139 139q18 18 43 18z"/><glyph unicode="&#xe044;" d="M250 12e2h8e2q21 0 35.5-14.5t14.5-35.5V0L650 444 2e2-1v1151q0 21 14.5 35.5T250 12e2z"/><glyph unicode="&#xe045;" d="M822 12e2H378q-11 0-19-7.5t-9-17.5l-78-301q-7-24 7-45l57-108q6-9 17.5-15t21.5-6h450q10 0 21.5 6t17.5 15l62 108q14 21 7 45l-83 301q-1 10-9 17.5t-19 7.5zm353-4e2h-150q-10 0-21-6.5T989 778l-78-156q-4-9-15-15.5t-21-6.5H325q-10 0-21 6.5T289 622l-78 156q-4 9-15 15.5t-21 6.5H25q-10 0-17.5-7.5T0 775V125q0-10 7.5-17.5T25 1e2h150q10 0 17.5 7.5T2e2 125v150q0 10 7.5 17.5T225 3e2h750q10 0 17.5-7.5T1e3 275V125q0-10 7.5-17.5t17.5-7.5h150q10 0 17.5 7.5t7.5 17.5v650q0 10-7.5 17.5T1175 8e2zM850 2e2H350q-10 0-19.5-7T319 176L281 24q-2-10 3.5-17T3e2.0h6e2q10 0 15.5 7t3.5 17l-38 152q-2 10-11.5 17t-19.5 7z"/><glyph unicode="&#xe046;" d="M5e2 11e2h2e2q56 0 102.5-20.5t72.5-50 44-59 25-50.5l6-20h150q41 0 70.5-29.5T12e2 8e2V2e2q0-41-29.5-70.5T11e2 1e2H1e2q-41 0-70.5 29.5T0 2e2v6e2q0 41 29.5 70.5T1e2 9e2h150q2 8 6.5 21.5t24 48 45 61 72 48T5e2 11e2zM9e2 8e2V7e2h1e2v1e2H9e2zM6e2 730q-95 0-162.5-67.5T370 5e2t67.5-162.5T6e2 270t162.5 67.5T830 5e2t-67.5 162.5T6e2 730zm0-127q43 0 73-30t30-73-30-73-73-30-73 30-30 73 30 73 73 30z"/><glyph unicode="&#xe047;" d="M681 1199l385-998q20-50 60-92 18-19 36.5-29.5T1190 68l10-2V0H783v66q53 0 75 43.5t5 88.5l-82 222H390q-58-145-92-234-11-34-6.5-57T317 92t46-20 55-6V0H53v66q56 24 84 52 12 12 25 30.5t20 31.5l7 13 399 1006h93zM416 521h340L594 978z"/><glyph unicode="&#xe048;" d="M753 641q5-1 14.5-4.5t36-15.5 50.5-26.5 53.5-40T958 5e2t35.5-70 14.5-87q0-67-27.5-125.5T909 120t-98.5-66.5T702 13 6e2.0H1e2v89q41 7 70.5 32.5T2e2 187v827q0 24-.5 34t-3.5 24-8.5 19.5-17 13.5-28 12.5T1e2 1129v71l471-1q57 0 115.5-20.5t108-57 80.5-94T906 903q0-51-15.5-96.5t-38-74.5-45-50.5T769 651zM4e2 7e2h139q78 0 130.5 48.5T722 871q0 41-8.5 70.5T684 997t-62.5 39.5T518 1050H4e2V7e2zm0-5e2h216q80 0 121 50.5T778 381q0 90-62.5 154.5T559 6e2H4e2V2e2z"/><glyph unicode="&#xe049;" d="M877 12e2l2-57q-83-19-116-45.5t-40-66.5L591 192q-9-49 13-69t96-26V0H2e2v97q186 16 2e2 98l173 832q3 17 3 30t-1.5 22.5-9 17.5-13.5 12.5-21.5 10-26 8.5-33.5 10q-13 3-19 5v57h425z"/><glyph unicode="&#xe050;" d="M13e2 9e2h-50q0 21-4 37t-9.5 26.5-18 17.5-22 11-28.5 5.5-31 2-37 .5H9e2V150q0-22 25-34.5t50-13.5l25-2V0H6e2v1e2q4 0 11 .5t24 3 30 7 24 15 11 24.5v850H5e2q-25 0-37-.5t-31-2-28.5-5.5-22-11-18-17.5T354 937t-4-37h-50v3e2h1e3V9e2zM175 1e3h-75V2e2h75L50 33-75 2e2H0v8e2h-75l125 167z"/><glyph unicode="&#xe051;" d="M11e2 9e2h-50q0 21-4 37t-9.5 26.5-18 17.5-22 11-28.5 5.5-31 2-37 .5H7e2V350q0-22 25-34.5t50-13.5l25-2V2e2H4e2v1e2q4 0 11 .5t24 3 30 7 24 15 11 24.5v650H3e2q-25 0-37-.5t-31-2-28.5-5.5-22-11-18-17.5T154 937t-4-37h-50v3e2h1e3V9e2zm67-850L1e3-75V0H2e2v-75L33 50l167 125v-75h8e2v75z"/><glyph unicode="&#xe052;" d="M50 11e2h6e2q21 0 35.5-14.5T7e2 1050V950q0-21-14.5-35.5T650 9e2H50q-21 0-35.5 14.5T0 950v1e2q0 21 14.5 35.5T50 11e2zm0-3e2h1e3q21 0 35.5-14.5T11e2 750V650q0-21-14.5-35.5T1050 6e2H50q-21 0-35.5 14.5T0 650v1e2q0 21 14.5 35.5T50 8e2zm0-3e2h8e2q21 0 35.5-14.5T9e2 450V350q0-21-14.5-35.5T850 3e2H50q-21 0-35.5 14.5T0 350v1e2q0 21 14.5 35.5T50 5e2zm0-3e2h11e2q21 0 35.5-14.5T12e2 150V50q0-21-14.5-35.5T1150 0H50Q29 0 14.5 14.5T0 50v1e2q0 21 14.5 35.5T50 2e2z"/><glyph unicode="&#xe053;" d="M250 11e2h7e2q21 0 35.5-14.5T1e3 1050V950q0-21-14.5-35.5T950 9e2H250q-21 0-35.5 14.5T2e2 950v1e2q0 21 14.5 35.5T250 11e2zM50 8e2h11e2q21 0 35.5-14.5T12e2 750V650q0-21-14.5-35.5T1150 6e2H50q-21 0-35.5 14.5T0 650v1e2q0 21 14.5 35.5T50 8e2zM250 5e2h7e2q21 0 35.5-14.5T1e3 450V350q0-21-14.5-35.5T950 3e2H250q-21 0-35.5 14.5T2e2 350v1e2q0 21 14.5 35.5T250 5e2zM50 2e2h11e2q21 0 35.5-14.5T12e2 150V50q0-21-14.5-35.5T1150 0H50Q29 0 14.5 14.5T0 50v1e2q0 21 14.5 35.5T50 2e2z"/><glyph unicode="&#xe054;" d="M5e2 950v1e2q0 21 14.5 35.5T550 11e2h6e2q21 0 35.5-14.5t14.5-35.5V950q0-21-14.5-35.5T1150 9e2H550q-21 0-35.5 14.5T5e2 950zM1e2 650v1e2q0 21 14.5 35.5T150 8e2h1e3q21 0 35.5-14.5T12e2 750V650q0-21-14.5-35.5T1150 6e2H150q-21 0-35.5 14.5T1e2 650zM3e2 350v1e2q0 21 14.5 35.5T350 5e2h8e2q21 0 35.5-14.5T12e2 450V350q0-21-14.5-35.5T1150 3e2H350q-21 0-35.5 14.5T3e2 350zM0 50v1e2q0 21 14.5 35.5T50 2e2h11e2q21 0 35.5-14.5T12e2 150V50q0-21-14.5-35.5T1150 0H50Q29 0 14.5 14.5T0 50z"/><glyph unicode="&#xe055;" d="M50 11e2h11e2q21 0 35.5-14.5t14.5-35.5V950q0-21-14.5-35.5T1150 9e2H50q-21 0-35.5 14.5T0 950v1e2q0 21 14.5 35.5T50 11e2zm0-3e2h11e2q21 0 35.5-14.5T12e2 750V650q0-21-14.5-35.5T1150 6e2H50q-21 0-35.5 14.5T0 650v1e2q0 21 14.5 35.5T50 8e2zm0-3e2h11e2q21 0 35.5-14.5T12e2 450V350q0-21-14.5-35.5T1150 3e2H50q-21 0-35.5 14.5T0 350v1e2q0 21 14.5 35.5T50 5e2zm0-3e2h11e2q21 0 35.5-14.5T12e2 150V50q0-21-14.5-35.5T1150 0H50Q29 0 14.5 14.5T0 50v1e2q0 21 14.5 35.5T50 2e2z"/><glyph unicode="&#xe056;" d="M50 11e2h1e2q21 0 35.5-14.5T2e2 1050V950q0-21-14.5-35.5T150 9e2H50q-21 0-35.5 14.5T0 950v1e2q0 21 14.5 35.5T50 11e2zm3e2.0h8e2q21 0 35.5-14.5t14.5-35.5V950q0-21-14.5-35.5T1150 9e2H350q-21 0-35.5 14.5T3e2 950v1e2q0 21 14.5 35.5T350 11e2zM50 8e2h1e2q21 0 35.5-14.5T2e2 750V650q0-21-14.5-35.5T150 6e2H50q-21 0-35.5 14.5T0 650v1e2q0 21 14.5 35.5T50 8e2zm3e2.0h8e2q21 0 35.5-14.5T12e2 750V650q0-21-14.5-35.5T1150 6e2H350q-21 0-35.5 14.5T3e2 650v1e2q0 21 14.5 35.5T350 8e2zM50 5e2h1e2q21 0 35.5-14.5T2e2 450V350q0-21-14.5-35.5T150 3e2H50q-21 0-35.5 14.5T0 350v1e2q0 21 14.5 35.5T50 5e2zm3e2.0h8e2q21 0 35.5-14.5T12e2 450V350q0-21-14.5-35.5T1150 3e2H350q-21 0-35.5 14.5T3e2 350v1e2q0 21 14.5 35.5T350 5e2zM50 2e2h1e2q21 0 35.5-14.5T2e2 150V50q0-21-14.5-35.5T150 0H50Q29 0 14.5 14.5T0 50v1e2q0 21 14.5 35.5T50 2e2zm3e2.0h8e2q21 0 35.5-14.5T12e2 150V50q0-21-14.5-35.5T1150 0H350q-21 0-35.5 14.5T3e2 50v1e2q0 21 14.5 35.5T350 2e2z"/><glyph unicode="&#xe057;" d="M4e2.0H3e2v11e2h1e2V0zM550 11e2h1e2q21 0 35.5-14.5T7e2 1050V950q0-21-14.5-35.5T650 9e2H550q-21 0-35.5 14.5T5e2 950v1e2q0 21 14.5 35.5T550 11e2zm0-3e2h5e2q21 0 35.5-14.5T11e2 750V650q0-21-14.5-35.5T1050 6e2H550q-21 0-35.5 14.5T5e2 650v1e2q0 21 14.5 35.5T550 8e2zM267 550 1e2 425v75h-2e2v1e2h2e2v75zm283-50h3e2q21 0 35.5-14.5T9e2 450V350q0-21-14.5-35.5T850 3e2H550q-21 0-35.5 14.5T5e2 350v1e2q0 21 14.5 35.5T550 5e2zm0-3e2h6e2q21 0 35.5-14.5T12e2 150V50q0-21-14.5-35.5T1150 0H550q-21 0-35.5 14.5T5e2 50v1e2q0 21 14.5 35.5T550 2e2z"/><glyph unicode="&#xe058;" d="M50 11e2h1e2q21 0 35.5-14.5T2e2 1050V950q0-21-14.5-35.5T150 9e2H50q-21 0-35.5 14.5T0 950v1e2q0 21 14.5 35.5T50 11e2zM9e2.0H8e2v11e2h1e2V0zM50 8e2h5e2q21 0 35.5-14.5T6e2 750V650q0-21-14.5-35.5T550 6e2H50q-21 0-35.5 14.5T0 650v1e2q0 21 14.5 35.5T50 8e2zM11e2 6e2h2e2V5e2h-2e2v-75L933 550l167 125v-75zM50 5e2h3e2q21 0 35.5-14.5T4e2 450V350q0-21-14.5-35.5T350 3e2H50q-21 0-35.5 14.5T0 350v1e2q0 21 14.5 35.5T50 5e2zm0-3e2h6e2q21 0 35.5-14.5T7e2 150V50q0-21-14.5-35.5T650 0H50Q29 0 14.5 14.5T0 50v1e2q0 21 14.5 35.5T50 2e2z"/><glyph unicode="&#xe059;" d="M75 1e3h750q31 0 53-22t22-53V275q0-31-22-53t-53-22H75q-31 0-53 22T0 275v650q0 31 22 53t53 22zM12e2 3e2 9e2 6e2l3e2 3e2V3e2z"/><glyph unicode="&#xe060;" d="M44 11e2h1112q18 0 31-13t13-31V44q0-18-13-31t-31-13H44Q26 0 13 13T0 44v1012q0 18 13 31t31 13zm56-1e2V263l247 182 298-131-74 156 293 318 236-288v5e2H1e2zM342 884q56 0 95-39t39-94.5-39-95-95-39.5-95 39.5-39 95 39 94.5 95 39z"/><glyph unicode="&#xe062;" d="M648 1169q117 0 216-60t156.5-161 57.5-218q0-115-70-258-69-109-158-225.5T707 67L653 5q-9 8-25.5 24.5T564 97t-91 103-98.5 128T279 476q-60 132-60 249 0 88 34 169.5t91.5 142 137 96.5 166.5 36zm4.5-195Q561 974 496 909t-65-157 65-156.5T652.5 531 809 595.5 874 752t-65 157-156.5 65z"/><glyph unicode="&#xe063;" d="M6e2 1177q117 0 224-45.5t184.5-123 123-184.5 45.5-224-45.5-224-123-184.5T824 68.5 6e2 23 376 68.5t-184.5 123T68.5 376 23 6e2t45.5 224 123 184.5 184.5 123 224 45.5zm0-1004v854q-116 0-214.5-57T230 814.5 173 6e2t57-214.5T385.5 230 6e2 173z"/><glyph unicode="&#xe064;" d="M554 1295q21-72 57.5-143.5t76-130 83-118 82.5-117 70-116 49.5-126T991 408q0-71-25.5-135T897 162t-99-82-118.5-54T554 3q-84 5-161.5 34T253 115.5t-99 125T117 405q0 69 18 136.5T184.5 668 254 784.5 335.5 902t83.5 119 76.5 131 58.5 143zM344 710q-23-33-43.5-70.5T260 537t-17-123q1-37 14.5-69.5t30-52 41-37T367 231t33-15q21-7 32-1t13 22l6 34q2 10-2.5 22T435 312q-5 4-14 12t-29.5 40.5T359 438q-26 89 6 271 2 11-6 11-8 1-15-10z"/><glyph unicode="&#xe065;" d="M1e3 1013l108 115q2 1 5 2t13 2 20.5-1 25-9.5 28.5-21.5q22-22 27-43t0-32l-6-10-108-115zm-650 87h4e2q50 0 105-13L668 9e2H3e2q-41 0-70.5-29.5T2e2 8e2V3e2q0-41 29.5-70.5T3e2 2e2h5e2q41 0 70.5 29.5T9e2 3e2v182l2e2 2e2V350q0-165-93.5-257.5T750 0H350Q185 0 92.5 92.5T0 350v4e2q0 165 92.5 257.5T350 11e2zm659-297-362-362-161-50 55 170 355 355z"/><glyph unicode="&#xe066;" d="M350 11e2h361Q547 954 495 9e2H3e2q-41 0-70.5-29.5T2e2 8e2V3e2q0-41 29.5-70.5T3e2 2e2h5e2q41 0 70.5 29.5T9e2 3e2l2e2 153V350q0-165-92.5-257.5T750 0H350Q185 0 92.5 92.5T0 350v4e2q0 165 92.5 257.5T350 11e2zm474-27 339-301q8-7 8-17.5t-8-17.5L823 431q-7-6-12.5-4t-6.5 11v203q-26 1-54.5.0t-78.5-7.5-92-17.5-86-35-70-57q10 59 33 108t51.5 81.5 65 58.5 68.5 40.5 67 24.5 56 13.5 40 4.5v210q1 10 6.5 12.5t13.5-4.5z"/><glyph unicode="&#xe067;" d="M350 11e2h350q60 0 127-23L649 9e2H3e2q-41 0-70.5-29.5T2e2 8e2V3e2q0-41 29.5-70.5T3e2 2e2h5e2q41 0 70.5 29.5T9e2 3e2v69l2e2 2e2V350q0-165-92.5-257.5T750 0H350Q185 0 92.5 92.5T0 350v4e2q0 165 92.5 257.5T350 11e2zM643 639l395 395q7 7 17.5 7t17.5-7l101-101q7-7 7-17.5t-7-17.5L643 366q-7-7-17.5-7t-17.5 7L360 614q-7 7-7 17.5t7 17.5l101 101q7 7 17.5 7t17.5-7l111-111q8-7 18-7t18 7z"/><glyph unicode="&#xe068;" d="M318 918l264 264q8 8 18 8t18-8l260-264q7-8 4.5-13t-12.5-5H7e2V7e2h2e2v173q0 10 5 12t13-5l264-260q8-7 8-17.5t-8-17.5L918 320q-8-7-13-5t-5 12v173H7e2V3e2h170q10 0 12.5-5t-4.5-13L618 18q-8-8-18-8t-18 8L318 282q-8 8-5.5 13t12.5 5h175v2e2H3e2V327q0-10-5-12t-13 5L18 585q-8 7-8 17.5t8 17.5l264 260q8 7 13 5t5-12V7e2h2e2v2e2H325q-10 0-12.5 5t5.5 13z"/><glyph unicode="&#xe069;" d="M250 11e2h1e2q21 0 35.5-14.5T4e2 1050V612l464 453q15 14 25.5 10t10.5-25V50q0-21-10.5-25T864 35L4e2 488V50q0-21-14.5-35.5T350 0H250q-21 0-35.5 14.5T2e2 50v1e3q0 21 14.5 35.5T250 11e2z"/><glyph unicode="&#xe070;" d="M50 11e2h1e2q21 0 35.5-14.5T2e2 1050V612l464 453q15 14 25.5 10t10.5-25V612l464 453q15 14 25.5 10t10.5-25V50q0-21-10.5-25T1164 35L7e2 488V50q0-21-10.5-25T664 35L2e2 488V50q0-21-14.5-35.5T150 0H50Q29 0 14.5 14.5T0 50v1e3q0 21 14.5 35.5T50 11e2z"/><glyph unicode="&#xe071;" d="M12e2 1050V50q0-21-10.5-25T1164 35L7e2 488V50q0-21-10.5-25T664 35L172 515q-15 14-15 35t15 35l492 480q15 14 25.5 10t10.5-25V612l464 453q15 14 25.5 10t10.5-25z"/><glyph unicode="&#xe072;" d="M243 1074l814-498q18-11 18-26t-18-26L243 26q-18-11-30.5-4T2e2 50v1e3q0 21 12.5 28t30.5-4z"/><glyph unicode="&#xe073;" d="M250 1e3h2e2q21 0 35.5-14.5T5e2 950V150q0-21-14.5-35.5T450 1e2H250q-21 0-35.5 14.5T2e2 150v8e2q0 21 14.5 35.5T250 1e3zm4e2.0h2e2q21 0 35.5-14.5T9e2 950V150q0-21-14.5-35.5T850 1e2H650q-21 0-35.5 14.5T6e2 150v8e2q0 21 14.5 35.5T650 1e3z"/><glyph unicode="&#xe074;" d="M11e2 950V150q0-21-14.5-35.5T1050 1e2H250q-21 0-35.5 14.5T2e2 150v8e2q0 21 14.5 35.5T250 1e3h8e2q21 0 35.5-14.5T11e2 950z"/><glyph unicode="&#xe075;" d="M5e2 612v438q0 21 10.5 25t25.5-10l492-480q15-14 15-35t-15-35L536 35q-15-14-25.5-10T5e2 50v438L36 35Q21 21 10.5 25T0 50v1e3q0 21 10.5 25t25.5-10z"/><glyph unicode="&#xe076;" d="M1048 1102l1e2 1q20 0 35-14.5t15-35.5l5-1e3q0-21-14.5-35.5T1153 3l-1e2-1q-21 0-35.5 14.5T1003 52l-2 437L538 35q-14-15-24.5-10.5T503 50l-2 437L39 32q-15-14-25.5-9.5T3 47l-5 1e3q0 21 10.5 25.5T34 1062l466-450-2 438q0 20 10.5 24.5t25.5-9.5l466-451-2 438q0 21 14.5 35.5t35.5 14.5z"/><glyph unicode="&#xe077;" d="M850 11e2h1e2q21 0 35.5-14.5T1e3 1050V50q0-21-14.5-35.5T950 0H850q-21 0-35.5 14.5T8e2 50v438L336 35q-15-14-25.5-10T3e2 50v1e3q0 21 10.5 25t25.5-10l464-453v438q0 21 14.5 35.5T850 11e2z"/><glyph unicode="&#xe078;" d="M686 1081l501-540q15-15 10.5-26t-26.5-11H129q-22 0-26.5 11t10.5 26l501 540q15 15 36 15t36-15zM150 4e2h1e3q21 0 35.5-14.5T12e2 350V250q0-21-14.5-35.5T1150 2e2H150q-21 0-35.5 14.5T1e2 250v1e2q0 21 14.5 35.5T150 4e2z"/><glyph unicode="&#xe079;" d="M885 9e2 533 547l352-353L688-4 136 548l552 550z"/><glyph unicode="&#xe080;" d="M1064 547 513-4 315 194l353 353-353 353 198 198z"/><glyph unicode="&#xe081;" d="M6e2 1177q117 0 224-45.5t184.5-123 123-184.5 45.5-224-45.5-224-123-184.5T824 68.5 6e2 23 376 68.5t-184.5 123T68.5 376 23 6e2t45.5 224 123 184.5 184.5 123 224 45.5zm50-277H550q-21 0-35.5-14.5T5e2 850V7e2H350q-21 0-35.5-14.5T3e2 650V550q0-21 14.5-35.5T350 5e2h150V350q0-21 14.5-35.5T550 3e2h1e2q21 0 35.5 14.5T7e2 350v150h150q21 0 35.5 14.5T9e2 550v1e2q0 21-14.5 35.5T850 7e2H7e2v150q0 21-14.5 35.5T650 9e2z"/><glyph unicode="&#xe082;" d="M6e2 1177q117 0 224-45.5t184.5-123 123-184.5 45.5-224-45.5-224-123-184.5T824 68.5 6e2 23 376 68.5t-184.5 123T68.5 376 23 6e2t45.5 224 123 184.5 184.5 123 224 45.5zM850 7e2H350q-21 0-35.5-14.5T3e2 650V550q0-21 14.5-35.5T350 5e2h5e2q21 0 35.5 14.5T9e2 550v1e2q0 21-14.5 35.5T850 7e2z"/><glyph unicode="&#xe083;" d="M6e2 1177q117 0 224-45.5t184.5-123 123-184.5 45.5-224-45.5-224-123-184.5T824 68.5 6e2 23 376 68.5t-184.5 123T68.5 376 23 6e2t45.5 224 123 184.5 184.5 123 224 45.5zM741.5 913q-12.5.0-21.5-9L6e2 784 480 904q-9 9-21.5 9t-21.5-9L296 763q-9-9-9-21.5t9-21.5l120-120-120-120q-9-9-9-21.5t9-21.5l141-141q9-9 21.5-9t21.5 9l120 120 120-120q9-9 21.5-9t21.5 9l141 141q9 9 9 21.5t-9 21.5L784 6e2l120 120q9 9 9 21.5t-9 21.5L763 904q-9 9-21.5 9z"/><glyph unicode="&#xe084;" d="M6e2 1177q117 0 224-45.5t184.5-123 123-184.5 45.5-224-45.5-224-123-184.5T824 68.5 6e2 23 376 68.5t-184.5 123T68.5 376 23 6e2t45.5 224 123 184.5 184.5 123 224 45.5zM546 623l-84 85q-7 7-17.5 7t-18.5-7L287 569q-7-8-7-18t7-18l242-241q7-8 17.5-8t17.5 8l375 375q7 7 7 17.5t-7 18.5L8e2 842q-7 7-17.5 7t-17.5-7z"/><glyph unicode="&#xe085;" d="M6e2 1177q117 0 224-45.5t184.5-123 123-184.5 45.5-224-45.5-224-123-184.5T824 68.5 6e2 23 376 68.5t-184.5 123T68.5 376 23 6e2t45.5 224 123 184.5 184.5 123 224 45.5zM588 941q-29 0-59-5.5T466 915t-58-38.5-41.5-63T350 724q0-25 20-25h131q30-5 35 11 6 20 20.5 28t45.5 8q20 0 31.5-10.5T645 707q0-23-7-34t-26-18q-1 0-13.5-4t-19.5-7.5-20-10.5-22-17-18.5-24-15.5-35-8-46q-1-8 5.5-16.5T521 486h173q7 0 22 8t35 28 37.5 48 29.5 74 12 1e2q0 47-17 83t-42.5 57-59.5 34.5-64 18-59 4.5zm87-541H525q-10 0-17.5-7.5T5e2 375V225q0-10 7.5-17.5T525 2e2h150q10 0 17.5 7.5T7e2 225v150q0 10-7.5 17.5T675 4e2z"/><glyph unicode="&#xe086;" d="M6e2 1177q117 0 224-45.5t184.5-123 123-184.5 45.5-224-45.5-224-123-184.5T824 68.5 6e2 23 376 68.5t-184.5 123T68.5 376 23 6e2t45.5 224 123 184.5 184.5 123 224 45.5zm75-177H525q-10 0-17.5-7.5T5e2 975V825q0-10 7.5-17.5T525 8e2h150q10 0 17.5 7.5T7e2 825v150q0 10-7.5 17.5T675 1e3zm0-3e2H425q-10 0-17.5-7.5T4e2 675v-50q0-10 7.5-17.5T425 6e2h75V4e2h-75q-10 0-17.5-7.5T4e2 375v-50q0-10 7.5-17.5T425 3e2h350q10 0 17.5 7.5T8e2 325v50q0 10-7.5 17.5T775 4e2h-75v275q0 10-7.5 17.5T675 7e2z"/><glyph unicode="&#xe087;" d="M525 12e2h150q10 0 17.5-7.5t7.5-17.5V981q103-27 178.5-102.5T981 7e2h194q10 0 17.5-7.5t7.5-17.5V525q0-10-7.5-17.5T1175 5e2H981q-27-103-102.5-178.5T7e2 219V25q0-10-7.5-17.5T675 0H525q-10 0-17.5 7.5T5e2 25v194q-103 27-178.5 102.5T219 5e2H25q-10 0-17.5 7.5T0 525v150q0 10 7.5 17.5T25 7e2h194q27 103 102.5 178.5T5e2 981v194q0 10 7.5 17.5t17.5 7.5zM7e2 893V725q0-10-7.5-17.5T675 7e2H525q-10 0-17.5 7.5T5e2 725v168q-68-23-119-74t-74-119h168q10 0 17.5-7.5T5e2 675V525q0-10-7.5-17.5T475 5e2H307q23-68 74-119t119-74v168q0 10 7.5 17.5T525 5e2h150q10 0 17.5-7.5T7e2 475V307q68 23 119 74t74 119H725q-10 0-17.5 7.5T7e2 525v150q0 10 7.5 17.5T725 7e2h168q-23 68-74 119t-119 74z"/><glyph unicode="&#xe088;" d="M6e2 1177q117 0 224-45.5t184.5-123 123-184.5 45.5-224-45.5-224-123-184.5T824 68.5 6e2 23 376 68.5t-184.5 123T68.5 376 23 6e2t45.5 224 123 184.5 184.5 123 224 45.5zm0-150q-116 0-214.5-57T230 814.5 173 6e2t57-214.5T385.5 230 6e2 173t214.5 57T970 385.5t57 214.5-57 214.5T814.5 970 6e2 1027zM759 823l64-64q7-7 7-17.5t-7-17.5L699 6e2l124-124q7-7 7-17.5t-7-17.5l-64-64q-7-7-17.5-7t-17.5 7L6e2 501 476 377q-7-7-17.5-7t-17.5 7l-64 64q-7 7-7 17.5t7 17.5l124 124-124 124q-7 7-7 17.5t7 17.5l64 64q7 7 17.5 7t17.5-7l124-124 124 124q7 7 17.5 7t17.5-7z"/><glyph unicode="&#xe089;" d="M6e2 1177q117 0 224-45.5t184.5-123 123-184.5 45.5-224-45.5-224-123-184.5T824 68.5 6e2 23 376 68.5t-184.5 123T68.5 376 23 6e2t45.5 224 123 184.5 184.5 123 224 45.5zm0-150q-116 0-214.5-57T230 814.5 173 6e2t57-214.5T385.5 230 6e2 173t214.5 57T970 385.5t57 214.5-57 214.5T814.5 970 6e2 1027zM782 788l106-106q7-7 7-17.5t-7-17.5L568 326q-8-7-18-7t-18 7L330 529q-8 7-8 17.5t8 17.5l106 106q7 8 17.5 8t17.5-8l79-79 197 197q7 7 17.5 7t17.5-7z"/><glyph unicode="&#xe090;" d="M6e2 1177q117 0 224-45.5t184.5-123 123-184.5 45.5-224-45.5-224-123-184.5T824 68.5 6e2 23 376 68.5t-184.5 123T68.5 376 23 6e2t45.5 224 123 184.5 184.5 123 224 45.5zm0-150q-116 0-214.5-57T230 814.5 173 6e2q0-120 65-225l587 587q-105 65-225 65zM965 819 381 235q104-62 219-62 116 0 214.5 57T970 385.5t57 214.5q0 115-62 219z"/><glyph unicode="&#xe091;" d="M39 582l522 427q16 13 27.5 8t11.5-26V7e2h550q21 0 35.5-14.5T12e2 650V450q0-21-14.5-35.5T1150 4e2H6e2V109q0-21-11.5-26T561 91L39 518q-16 13-16 32t16 32z"/><glyph unicode="&#xe092;" d="M639 1009l522-427q16-13 16-32t-16-32L639 91q-16-13-27.5-8T6e2 109v291H50q-21 0-35.5 14.5T0 450v2e2q0 21 14.5 35.5T50 7e2h550v291q0 21 11.5 26t27.5-8z"/><glyph unicode="&#xe093;" d="M682 1161l427-522q13-16 8-27.5t-26-11.5H8e2V50q0-21-14.5-35.5T750 0H550q-21 0-35.5 14.5T5e2 50v550H209q-21 0-26 11.5t8 27.5l427 522q13 16 32 16t32-16z"/><glyph unicode="&#xe094;" d="M550 12e2h2e2q21 0 35.5-14.5T8e2 1150V6e2h291q21 0 26-11.5t-8-27.5L682 39q-13-16-32-16t-32 16L191 561q-13 16-8 27.5t26 11.5h291v550q0 21 14.5 35.5T550 12e2z"/><glyph unicode="&#xe095;" d="M639 1109l522-427q16-13 16-32t-16-32L639 191q-16-13-27.5-8T6e2 209v291q-94-2-182-20t-170.5-52-147-92.5T0 2e2q5 105 27 193.5t67.5 167 113 135 167 91.5T6e2 829v262q0 21 11.5 26t27.5-8z"/><glyph unicode="&#xe096;" d="M850 12e2h3e2q21 0 35.5-14.5t14.5-35.5V850q0-21-10.5-25t-24.5 10l-94 94-249-249q-8-7-18-7t-18 7L680 786q-7 8-7 18t7 18l249 249-94 94q-14 14-10 24.5t25 10.5zM350 0H50Q29 0 14.5 14.5T0 50v3e2q0 21 10.5 25T35 365l94-94 249 249q8 7 18 7t18-7l106-106q7-8 7-18t-7-18L271 129l94-94q14-14 10-24.5T350 0z"/><glyph unicode="&#xe097;" d="M1014 1120l106-106q7-8 7-18t-7-18L871 729l94-94q14-14 10-24.5T950 6e2H650q-21 0-35.5 14.5T6e2 650v3e2q0 21 10.5 25t24.5-10l94-94 249 249q8 7 18 7t18-7zM250 6e2h3e2q21 0 35.5-14.5T6e2 550V250q0-21-10.5-25T565 235l-94 94L222 80q-8-7-18-7t-18 7L80 186q-7 8-7 18t7 18l249 249-94 94q-14 14-10 24.5t25 10.5z"/><glyph unicode="&#xe101;" d="M6e2 1177q117 0 224-45.5t184.5-123 123-184.5 45.5-224-45.5-224-123-184.5T824 68.5 6e2 23 376 68.5t-184.5 123T68.5 376 23 6e2t45.5 224 123 184.5 184.5 123 224 45.5zM704 9e2H496q-20 0-32-14.5t-8-34.5l58-302q4-20 21.5-34.5T573 5e2h54q20 0 37.5 14.5T686 549l58 302q4 20-8 34.5T704 9e2zM675 4e2H525q-10 0-17.5-7.5T5e2 375V225q0-10 7.5-17.5T525 2e2h150q10 0 17.5 7.5T7e2 225v150q0 10-7.5 17.5T675 4e2z"/><glyph unicode="&#xe102;" d="M260 12e2q9 0 19-2t15-4l5-2q22-10 44-23l196-118q21-13 36-24 29-21 37-12 11 13 49 35l196 118q22 13 45 23 17 7 38 7 23 0 47-16.5t37-33.5l13-16q14-21 18-45l25-123 8-44q1-9 8.5-14.5t17.5-5.5h61q10 0 17.5-7.5t7.5-17.5v-50q0-10-7.5-17.5T1175 8e2h-50q-10 0-17.5-7.5T11e2 775V6e2H7e2v3e2H5e2V6e2H1e2v175q0 10-7.5 17.5T75 8e2H25q-10 0-17.5 7.5T0 825v50q0 10 7.5 17.5T25 9e2h61q11 0 18 3t7 8q0 4 9 52l25 128q5 25 19 45 2 3 5 7t13.5 15 21.5 19.5 26.5 15.5 29.5 7zm655-121-166-162q-7-7-5-12t12-5h219q10 0 15 7t2 17l-51 149q-3 10-11 12t-15-6zM463 917l-177 157q-8 7-16 5t-11-12l-51-143q-3-10 2-17t15-7h231q11 0 12.5 5t-5.5 12zM5e2.0H125q-10 0-17.5 7.5T1e2 25v375h4e2V0zm6e2 4e2V25q0-10-7.5-17.5T1075 0H7e2v4e2h4e2z"/><glyph unicode="&#xe103;" d="M1165 1190q8 3 21-6.5t13-17.5q-2-178-24.5-323.5T1119 597t-87-174.5T929.5 304t-118-68.5-118.5-33-120-4.5-105 9.5-90 16.5q-61 12-78 11-4 1-12.5.0t-34-14.5T201 180L48 27Q22 3 11 12.5T0 56q0 64 42 102 8 8 50.5 45t66.5 58q19 17 35 47t13 61q-9 55-10 102.5t7 111 37 130T319 842q39 51 80 88t89.5 63.5 94.5 45 113.5 36 129 31 157.5 37 182 47.5zm-49-92q-8 9-22.5-3t-45.5-50q-38-47-119-103.5T787 852l-62-33q-56-30-102-57t-104-68-102.5-80.5-85.5-91T267 418q-24-56-31-86t2-32 31.5 17.5T325 377q25 30 94 75.5T544.5 530 692 611q70 37 118.5 69t102 79.5 99 111T1098 1019q22 50 24 60t-6 19z"/><glyph unicode="&#xe104;" d="M653 1231q-39-67-54.5-131T588 985.5t24.5-96.5 47.5-80 63.5-62.5T792 7e2t65-30q-4 7-17.5 35T821 744.5 804 784t-17 43-13 42-9.5 44.5-2 42 4 43 13.5 39 23 38.5q96-42 165-107.5t105-138 52-156 13-159-19-149.5q-13-55-44-106.5t-68-87-78.5-64.5T856 63t-53-22q-72-22-127-11-31 6-13 19 6 3 17 7 13 5 32.5 21t41 44 38.5 63.5 21.5 81.5-6.5 94.5-50 107T653 583q10-104-.5-189t-37-140.5-65-93-84-52-93.5-11-95 24.5q-80 36-131.5 114T93 407q-2 23 0 49.5t4.5 52.5 13.5 56 27.5 60 46 64.5T254 758q-8-53-5-102.5t17.5-90 34-68.5 44.5-39 49-2q31 13 38.5 36t-4.5 55-29 64.5-36 75-26 75.5q-15 85 2 161.5t53.5 128.5 85.5 92.5 93.5 61T653 1231z"/><glyph unicode="&#xe105;" d="M6e2 1094q82 0 160.5-22.5t140-59T1017 930t94.5-95 68-95 42.5-82.5 14-57.5-14-57.5-43-82.5-68.5-95-94.5-95-116.5-82.5-140-59T6e2 106t-159.5 22.5-140 59T184 270t-94.5 95T21 460t-43 82.5-14 57.5 14 57.5T20.5 740t68 95 94.5 95 116.5 82.5 140 59T6e2 1094zM888 829q-15 15-18 12t5-22q25-57 25-119 0-124-88-212t-212-88-212 88-88 212q0 59 23 114 8 19 4.5 22T310 824q-70-69-160-184-13-16-15-40.5t9-42.5q22-36 47-71t70-82 92.5-81 113-58.5T6e2 240t133.5 24 113 58.5T939 404t70 81.5 47 70.5q11 18 9 42.5t-14 41.5q-90 117-163 189zM448 727l-35-36q-15-15-19.5-38.5T398 611q37-68 93-116 16-13 38.5-11t36.5 17l35 34q14 15 12.5 33.5T597 602q-44 44-89 117-11 18-28 20t-32-12z"/><glyph unicode="&#xe106;" d="M592 0H444l31 120q-91 20-175.5 68.5T156 295 52.5 414-14 524t-22 76q0 21 14 57.5T20.5 740t68 95 94.5 95 116.5 82.5 140 59T6e2 1094q61 0 126-15l32 121h148zM944 770l47 181q108-85 176.5-192t68.5-159q0-26-19.5-71T1157 427t-93-112-129-104.5T777 135l46 173q77 49 136 117t97 131q11 18 9 42.5t-14 41.5q-54 70-107 130zM310 824q-70-69-160-184-13-16-15-40.5t9-42.5q18-30 39-60t57-70.5 74-73 90-61T509 251l41 154q-107 18-178.5 101.5T3e2 7e2q0 59 23 114 8 19 4.5 22T310 824zm138-97-35-36q-15-15-19.5-38.5T398 611q37-68 93-116 16-13 38.5-11t36.5 17l12 11 22 86-3 4q-44 44-89 117-11 18-28 20t-32-12z"/><glyph unicode="&#xe107;" d="M-90 1e2l642 1066q20 31 48 28.5t48-35.5l642-1056q21-32 7.5-67.5T1247 0H-47q-37 0-50.5 34t7.5 66zM155 2e2h345v75q0 10 7.5 17.5T525 3e2h150q10 0 17.5-7.5T7e2 275v-75h345L6e2 923zM496 7e2h208q20 0 32-14.5t8-34.5l-58-252q-4-20-21.5-34.5T627 350h-54q-20 0-37.5 14.5T514 399l-58 252q-4 20 8 34.5t32 14.5z"/><glyph unicode="&#xe108;" d="M650 12e2q62 0 106-44t44-106V711l363-325q15-14 26-38.5t11-44.5v-41q0-20-12-26.5t-29 5.5L8e2 490V227q1e2-93 1e2-113V50q0-21-13-29t-32 1L650 150 445 22q-19-9-32-1t-13 29v64q0 20 1e2 113v263L141 241q-17-12-29-5.5T1e2 262v41q0 20 11 44.5t26 38.5l363 325v339q0 62 44 106t106 44z"/><glyph unicode="&#xe109;" d="M850 12e2h1e2q21 0 35.5-14.5T1e3 1150v-50h50q21 0 35.5-14.5t14.5-35.5V9e2H0v150q0 21 14.5 35.5T50 11e2h50v50q0 21 14.5 35.5T150 12e2h1e2q21 0 35.5-14.5T3e2 1150v-50h5e2v50q0 21 14.5 35.5T850 12e2zm250-4e2V50q0-21-14.5-35.5T1050 0H50Q29 0 14.5 14.5T0 50v750h11e2zM1e2 6e2V5e2h1e2v1e2H1e2zm2e2.0V5e2h1e2v1e2H3e2zm2e2.0V5e2h1e2v1e2H5e2zm2e2.0V5e2h1e2v1e2H7e2zm2e2.0V5e2h1e2v1e2H9e2zM1e2 4e2V3e2h1e2v1e2H1e2zm2e2.0V3e2h1e2v1e2H3e2zm2e2.0V3e2h1e2v1e2H5e2zm2e2.0V3e2h1e2v1e2H7e2zm2e2.0V3e2h1e2v1e2H9e2zM1e2 2e2V1e2h1e2v1e2H1e2zm2e2.0V1e2h1e2v1e2H3e2zm2e2.0V1e2h1e2v1e2H5e2zm2e2.0V1e2h1e2v1e2H7e2zm2e2.0V1e2h1e2v1e2H9e2z"/><glyph unicode="&#xe110;" d="M1135 1165l249-230q15-14 15-35t-15-35l-249-230q-14-14-24.5-10t-10.5 25v150H941L341 2e2H50q-21 0-35.5 14.5T0 250v1e2q0 21 14.5 35.5T50 4e2h209l6e2 6e2h241v150q0 21 10.5 25t24.5-10zM522 819 381 678 259 8e2H50q-21 0-35.5 14.5T0 850v1e2q0 21 14.5 35.5T50 1e3h291zm613-254 249-230q15-14 15-35t-15-35L1135 35q-14-14-24.5-10T11e2 50v150H859L678 381l141 141 122-122h159v150q0 21 10.5 25t24.5-10z"/><glyph unicode="&#xe111;" d="M1e2 11e2h1e3q41 0 70.5-29.5T12e2 1e3V4e2q0-41-29.5-70.5T11e2 3e2H504L2e2.0v3e2H1e2q-41 0-70.5 29.5T0 4e2v6e2q0 41 29.5 70.5T1e2 11e2z"/><glyph unicode="&#xe112;" d="M150 12e2h2e2q21 0 35.5-14.5T4e2 1150V9e2H1e2v250q0 21 14.5 35.5T150 12e2zm7e2.0h2e2q21 0 35.5-14.5t14.5-35.5V9e2H8e2v250q0 21 14.5 35.5T850 12e2zm250-4e2V5e2q0-41-3-77.5t-15-89.5-32-96-58-89-89-77-129-51T6e2.0 426 20 297 71t-89 77-58 89-32 96-15 89.5-3 77.5v3e2h3e2V550v-27-42.5t1.5-41 5-38 10-35 16.5-30 25.5-24.5 35-19 46.5-12 60-4 60 4.5 46.5 12.5 35 19.5 25 25.5 17 30.5 10 35 5 38 2 40.5-.5 42v25 250h3e2z"/><glyph unicode="&#xe113;" d="M11e2 411 902 212 549 565 196 212-1 411l551 551z"/><glyph unicode="&#xe114;" d="M1101 789 551 238 0 789l198 199 353-353 353 353z"/><glyph unicode="&#xe115;" d="M404 1e3h746q21 0 35.5-14.5T12e2 950V399h150q21 0 25-10.5t-10-24.5l-230-249q-14-15-35-15t-35 15L835 364q-14 14-10 24.5t25 10.5h150v401H619zM135 984l230-249q14-14 10-24.5T350 7e2H2e2V3e2h385l215-2e2H50q-21 0-35.5 14.5T0 150v550h-150q-21 0-25 10.5t10 24.5L65 984q14 15 35 15t35-15z"/><glyph unicode="&#xe116;" d="M56 12e2h94q17 0 31-11t18-27l38-162h896q24 0 39-18.5t10-42.5l-1e2-475q-5-21-27-42.5T1e3 4e2H367l48-2e2h535q21 0 35.5-14.5T1e3 150t-14.5-35.5T950 1e2h-50V50q0-21-14.5-35.5T850 0t-35.5 14.5T8e2 50v50H5e2V50q0-21-14.5-35.5T450 0t-35.5 14.5T4e2 50v50h-31q-18 0-32.5 10T316 129l-5 10-201 961H56q-20 0-35 14.5T6 1150t15 35.5 35 14.5z"/><glyph unicode="&#xe117;" d="M12e2 1e3V9e2H0v1e2h2e2q0 41 29.5 70.5T3e2 11e2h3e2q41 0 70.5-29.5T7e2 1e3h5e2zM0 8e2h12e2V0H0v8e2z"/><glyph unicode="&#xe118;" d="M2e2 8e2.0 4e2v6e2h2e2q0 41 29.5 70.5T3e2 11e2h3e2q42 0 71-29.5t29-70.5h5e2V8e2H2e2zM15e2 7e2 12e2.0H0l3e2 7e2h12e2z"/><glyph unicode="&#xe119;" d="M635 1184l230-249q14-14 10-24.5T850 9e2H7e2V299h150q21 0 25-10.5T865 264L635 15Q621 0 6e2.0t-35 15L335 264q-14 14-10 24.5t25 10.5h150v601H350q-21 0-25 10.5t10 24.5l230 249q14 15 35 15t35-15z"/><glyph unicode="&#xe120;" d="M936 864l249-229q14-15 14-35.5t-14-35.5L936 335q-15-15-25.5-10.5T9e2 349v151H3e2V349q0-20-10.5-24.5T264 335L15 564Q1 579 1 599.5T15 635l249 229q15 15 25.5 10.5T3e2 849V7e2h6e2v149q0 21 10.5 25.5T936 864z"/><glyph unicode="&#xe121;" d="M1169 4e2l-172 732q-5 23-23 45.5t-38 22.5H264q-20 0-38-20t-23-41L31 4e2h1138zm-69-1e2H1e2q-41 0-70.5-29.5T0 2e2V1e2q0-41 29.5-70.5T1e2.0h1e3q41 0 70.5 29.5T12e2 1e2v1e2q0 41-29.5 70.5T11e2 3e2zM8e2 1e2v1e2h1e2V1e2H8e2zm2e2.0v1e2h1e2V1e2H1e3z"/><glyph unicode="&#xe122;" d="M1150 11e2q21 0 35.5-14.5t14.5-35.5V2e2q0-21-14.5-35.5T1150 150t-35.5 14.5T11e2 2e2v850q0 21 14.5 35.5t35.5 14.5zM1e3 2e2 325 4e2h-38l47-276q3-16-5.5-20t-29.5-4h-7-84q-20 0-34.5 14T155 149q-55 337-55 351v250 6q0 16 1 23.5t6.5 14T125 8e2h2e2l675 250V2e2zM0 750V5e2q-4 0-11 .5t-24 6-30 15-24 30-11 48.5v50q0 26 10.5 46t25 30 29 16 25.5 7z"/><glyph unicode="&#xe123;" d="M553 12e2h94q20 0 29-10.5t3-29.5l-18-37q83-19 144-82.5T881 9e2l63-327 118-173h17q19 0 33-14.5t14-35-13-40.5-31-27q-8-4-23-9.5T994 254t-103-25-132.5-20-158.5-9q-57 0-115 5t-104 12-88.5 15.5T219 250t-54.5 16-35.5 12l-11 4q-18 8-31 28t-13 40.5 14 35 33 14.5h17l118 173 63 327q15 77 76 140t144 83l-18 32q-6 19 3.5 32t28.5 13zM498 110q50-6 102-6 53 0 102 6-12-49-39.5-79.5T6e2.0t-63 30.5-39 79.5z"/><glyph unicode="&#xe124;" d="M8e2 946l224 78-78-224 234-45-180-155 180-155-234-45 78-224-224 78-45-234-155 180L445 20l-45 234-224-78 78 224-234 45 180 155L20 755l234 45-78 224 224-78 45 234 155-180 155 180z"/><glyph unicode="&#xe125;" d="M650 12e2h50q40 0 70-40.5t30-84.5V925l-28-125h328q40 0 70-40.5t30-84.5V575q0-45-29-74L933 157q-16-24-38-40.5T850 1e2H6e2q-7 0-42 25t-66 50l-31 25h-61q-45 0-72.5 18T3e2 275v4e2q0 36 20 63l145 196 96 198q13 28 37.5 48t51.5 20zm0-1e2-1e2-212-150-213V3e2h1e2l136-1e2h214l250 375v125H650l50 225v175h-50zM50 8e2h1e2q21 0 35.5-14.5T2e2 750V250q0-21-14.5-35.5T150 2e2H50q-21 0-35.5 14.5T0 250v5e2q0 21 14.5 35.5T50 8e2z"/><glyph unicode="&#xe126;" d="M6e2 11e2h250q23 0 45-16.5t38-40.5l238-344q29-29 29-74V525q0-44-30-84.5t-70-40.5H772q28-118 28-125V125q0-44-30-84.5T7e2.0h-50q-27 0-51.5 20T561 68l-96 198-145 196q-20 27-20 63v4e2q0 39 27.5 57t72.5 18h61q124 1e2 139 1e2zM50 1e3h1e2q21 0 35.5-14.5T2e2 950V450q0-21-14.5-35.5T150 4e2H50q-21 0-35.5 14.5T0 450v5e2q0 21 14.5 35.5T50 1e3zm586 0-136-1e2H4e2V525l150-213 1e2-212h50v175l-50 225h450v125L850 1e3H636z"/><glyph unicode="&#xe127;" d="M356 873l363 230q31 16 53-6l110-112q13-13 13.5-32T884 919l-84-121h302q84 0 138-38t54-110-55-111-139-39H994L863 161q-6-21-19.5-41T815 1e2H473q-7 0-90 81t-83 94v525q0 17 14 35.5t28 28.5zm44-81V289l1e2-89h293l131 339q6 21 19.5 41t28.5 20h203q21 0 30.5 25t.5 50-31 25H719h-7-6-5.5t-6 .5-5 1.5-5 2-4 2.5-4 4-2.5 4.5q-12 25 5 47l146 183-86 83zM50 8e2h1e2q21 0 35.5-14.5T2e2 750V250q0-21-14.5-35.5T150 2e2H50q-21 0-35.5 14.5T0 250v5e2q0 21 14.5 35.5T50 8e2z"/><glyph unicode="&#xe128;" d="M475 1103l366-230q2-1 6-3.5t14-10.5 18-16.5 14.5-20T9e2 8e2V275q0-13-86-94t-93-81H379q-15 0-28.5 20T331 161L2e2 5e2H94q-85 0-139.5 39T-1e2 650t54 110 138 38h302l-85 121q-11 15-10.5 34t13.5 32l110 112q22 22 53 6zM370 945l146-183q17-22 5-47-2-2-3.5-4.5t-4-4-4-2.5-5-2-5-1.5-6-.5h-6-6.5-6H0V6e2h221q15 0 29-20t20-41l130-339h294l106 89v503l-342 236zm680-145h1e2q21 0 35.5-14.5T12e2 750V250q0-21-14.5-35.5T1150 2e2h-1e2q-21 0-35.5 14.5T1e3 250v5e2q0 21 14.5 35.5T1050 8e2z"/><glyph unicode="&#xe129;" d="M550 1294q72 0 111-55t39-139V994l339-131q21-6 41-19.5t20-28.5V473q0-7-81-90t-94-83H4e2q-17 0-35.5 14T336 342l-9 14L97 719q-16 31 6 53l112 110q13 13 32 13.5t34-11.5l121-84v302q0 84 38 138t110 54zm50-322v203q0 21-25 30.5t-50 .5-25-31V719v-7-6-5.5t-.5-6-1.5-5-2-5-2.5-4-4-4-4.5-2.5q-25-12-47 5L255 825l-83-86 236-339h503l89 1e2v293L661 924q-21 6-41 19.5T6e2 972zM450 2e2h5e2q21 0 35.5-14.5T1e3 150V50q0-21-14.5-35.5T950 0H450q-21 0-35.5 14.5T4e2 50v1e2q0 21 14.5 35.5T450 2e2z"/><glyph unicode="&#xe130;" d="M350 11e2h5e2q21 0 35.5 14.5T9e2 1150v1e2q0 21-14.5 35.5T850 13e2H350q-21 0-35.5-14.5T3e2 1250v-1e2q0-21 14.5-35.5T350 11e2zM6e2 306V2e2q0-84-39-139T450 6 340 60t-38 138v302l-121-84q-15-12-34-11.5T115 418L3 528q-22 22-6 53l230 363q1 2 3.5 6t10.5 13.5 16.5 17 20 13.5 22.5 6h525q13 0 94-83t81-90V485q0-15-20-28.5T939 437zM308 9e2 72 561l83-86 183 146q22 17 47 5 2-1 4.5-2.5t4-4 2.5-4 2-5 1.5-5 .5-6V594v-6-7-456q0-22 25-31t50 .5 25 30.5v203q0 15 20 28.5t41 19.5l339 131v293l-89 1e2H308z"/><glyph unicode="&#xe131;" d="M6e2 1178q118 0 225-45.5t184.5-123 123-184.5 45.5-225-45.5-225-123-184.5T825 67.5 6e2 22 375 67.5t-184.5 123T67.5 375 22 6e2t45.5 225 123 184.5 184.5 123 225 45.5zM914 632 639 855q-16 13-27.5 8T6e2 837V7e2H325q-10 0-17.5-7.5T3e2 675V525q0-10 7.5-17.5T325 5e2h275V363q0-21 11.5-26t27.5 8l275 223q16 13 16 32t-16 32z"/><glyph unicode="&#xe132;" d="M6e2 1178q118 0 225-45.5t184.5-123 123-184.5 45.5-225-45.5-225-123-184.5T825 67.5 6e2 22 375 67.5t-184.5 123T67.5 375 22 6e2t45.5 225 123 184.5 184.5 123 225 45.5zM561 855 286 632q-16-13-16-32t16-32l275-223q16-13 27.5-8t11.5 26v137h275q10 0 17.5 7.5T9e2 525v150q0 10-7.5 17.5T875 7e2H6e2v137q0 21-11.5 26t-27.5-8z"/><glyph unicode="&#xe133;" d="M6e2 1178q118 0 225-45.5t184.5-123 123-184.5 45.5-225-45.5-225-123-184.5T825 67.5 6e2 22 375 67.5t-184.5 123T67.5 375 22 6e2t45.5 225 123 184.5 184.5 123 225 45.5zM855 639 632 914q-13 16-32 16t-32-16L345 639q-13-16-8-27.5t26-11.5h137V325q0-10 7.5-17.5T525 3e2h150q10 0 17.5 7.5T7e2 325v275h137q21 0 26 11.5t-8 27.5z"/><glyph unicode="&#xe134;" d="M6e2 1178q118 0 225-45.5t184.5-123 123-184.5 45.5-225-45.5-225-123-184.5T825 67.5 6e2 22 375 67.5t-184.5 123T67.5 375 22 6e2t45.5 225 123 184.5 184.5 123 225 45.5zm75-278H525q-10 0-17.5-7.5T5e2 875V6e2H363q-21 0-26-11.5t8-27.5l223-275q13-16 32-16t32 16l223 275q13 16 8 27.5T837 6e2H7e2v275q0 10-7.5 17.5T675 9e2z"/><glyph unicode="&#xe135;" d="M6e2 1176q116 0 222.5-46t184-123.5 123.5-184 46-222.5-46-222.5-123.5-184T822.5 70 6e2 24 377.5 70t-184 123.5T70 377.5 24 6e2t46 222.5 123.5 184 184 123.5 222.5 46zm27-75q-15-12-36.5-20.5t-35.5-12-43-8-39-6.5q-15-3-45.5.0t-45.5-2q-20-7-51.5-26.5T296 991q-3-11 6.5-22.5T311 950q-3-34-27.5-91T254 780q-9-34 5-93t8-87q0-9 17-44.5t16-59.5q12 0 23-5t23.5-15 19.5-14q16-8 33-15t40.5-15 34.5-12q21-9 52.5-32t60-38 57.5-11q7-15-3-34t-22.5-40-9.5-38q13-21 23-34.5t27.5-27.5 36.5-18q0-7-3.5-16t-3.5-14 5-17q104-2 221 112 30 29 46.5 47t34.5 49 21 63q-13 8-37 8.5t-36 7.5q-15 7-49.5 15T843 421q-18 0-41-.5t-43-1.5-42-6.5-38-16.5q-51-35-66-12-4 1-3.5 25.5t.5 25.5q-6 13-26.5 17.5T559 459q1 15-.5 30.5t-7 28T533 529t-31-21q-23-25-42 4-19 28-8 58 6 16 22 22 6-1 26-1.5t33.5-4T553 573q7-12 18-24t21.5-20.5 20-15T628 503l5-3q2 12 7.5 30.5t8 34.5-.5 32q-3 18 3.5 29t18 22.5T685 673q6 14 10.5 35t8 31 15.5 22.5 34 22.5q-6 18 10 36 8 0 24-1.5t24.5-1.5 20 4.5T852 837q-10 23-31 42.5T783.5 909t-49 27-43.5 23q0 1 2 8t3 11.5 1.5 10.5-1 9.5-4.5 4.5q31-13 58.5-14.5T789 991l12 5q5 28-9.5 46t-36.5 24-50 15-41 20q-18-4-37 0zM613 994q0-17 8-42t17-45 9-23q-8 1-39.5 5.5t-52.5 10-37 16.5q3 11 16 29.5t16 25.5q10-10 19-10t14 6 13.5 14.5T613 994z"/><glyph unicode="&#xe136;" d="M756 1157q164 92 306-9l-259-138 145-232 251 126q6-89-34-156.5T1048 637q-60-34-127-39.5T795 614L199 18Q184 2 162.5 2T126 18L15 128Q0 143 0 164.5T15 202l6e2 599q-34 101 5.5 201.5T756 1157z"/><glyph unicode="&#xe137;" horiz-adv-x="1220" d="M1e2 1196h1e3q41 0 70.5-29.5t29.5-70.5V996q0-41-29.5-70.5T11e2 896H1e2q-41 0-70.5 29.5T0 996v1e2q0 41 29.5 70.5T1e2 1196zm1e3-1e2H9e2V996h2e2v1e2zM1e2 796h1e3q41 0 70.5-29.5T12e2 696V596q0-41-29.5-70.5T11e2 496H1e2q-41 0-70.5 29.5T0 596v1e2q0 41 29.5 70.5T1e2 796zm1e3-1e2H6e2V596h5e2v1e2zM1e2 396h1e3q41 0 70.5-29.5T12e2 296V196q0-41-29.5-70.5T11e2 96H1e2q-41 0-70.5 29.5T0 196v1e2q0 41 29.5 70.5T1e2 396zm1e3-1e2H8e2V196h3e2v1e2z"/><glyph unicode="&#xe138;" d="M150 12e2h9e2q21 0 35.5-14.5t14.5-35.5-14.5-35.5-35.5-14.5H150q-21 0-35.5 14.5T1e2 1150t14.5 35.5T150 12e2zM7e2 5e2V2e2L5e2.0v5e2L150 1e3h9e2z"/><glyph unicode="&#xe139;" d="M5e2 12e2h2e2q41 0 70.5-29.5T8e2 11e2V1e3h3e2q41 0 70.5-29.5T12e2 9e2V5e2H7e2v1e2H5e2V5e2H0v4e2q0 41 29.5 70.5T1e2 1e3h3e2v1e2q0 41 29.5 70.5T5e2 12e2zm0-1e2V1e3h2e2v1e2H5e2zm7e2-7e2V2e2q0-41-29.5-70.5T11e2 1e2H1e2q-41 0-70.5 29.5T0 2e2v2e2h12e2z"/><glyph unicode="&#xe140;" d="M50 12e2h3e2q21 0 25-10.5t-10-24.5l-94-94 199-199q7-8 7-18t-7-18L364 730q-8-7-18-7t-18 7L129 929l-94-94q-14-14-24.5-10T0 850v3e2q0 21 14.5 35.5T50 12e2zm8e2.0h3e2q21 0 35.5-14.5t14.5-35.5V850q0-21-10.5-25t-24.5 10l-94 94-199-199q-8-7-18-7t-18 7L730 836q-7 8-7 18t7 18l199 199-94 94q-14 14-10 24.5t25 10.5zM364 470l106-106q7-8 7-18t-7-18L271 129l94-94q14-14 10-24.5T350 0H50Q29 0 14.5 14.5T0 50v3e2q0 21 10.5 25T35 365l94-94 199 199q8 7 18 7t18-7zm707-199 94 94q14 14 24.5 10t10.5-25V50q0-21-14.5-35.5T1150 0H850q-21 0-25 10.5T835 35l94 94-199 199q-7 8-7 18t7 18l106 106q8 7 18 7t18-7z"/><glyph unicode="&#xe141;" d="M596 1192q121 0 231.5-47.5t190-127 127-190T1192 596t-47.5-231.5-127-190.5-190-127T596 0 364.5 47 174 174 47 364.5.0 596t47 231.5 127 190 190.5 127T596 1192zm0-182q-112 0-207.5-55.5t-151-151T182 596t55.5-207.5 151-151T596 182t207.5 55.5 151 151T1010 596t-55.5 207.5-151 151T596 1010zM454.5 905q22.5.0 38.5-16t16-38.5-16-39-38.5-16.5-38.5 16.5-16 39 16 38.5 38.5 16zm3e2.0q22.5.0 38.5-16t16-38.5-16-39-38-16.5q-14 0-29 10l-55-145q17-23 17-51 0-36-25.5-61.5T601 522t-61.5 25.5T514 609q0 32 20.5 56.5T586 695l122 126 1 1q-9 14-9 28 0 23 16 39t38.5 16zm-409-196q22.5.0 38.5-16t16-38.5-16-38.5-38.5-16-38.5 16-16 38.5 16 38.5 38.5 16zm509 0q22.5.0 38.5-16t16-38.5-16-38.5-38.5-16-38.5 16-16 38.5 16 38.5 38.5 16z"/><glyph unicode="&#xe142;" d="M546 173l469 470q91 91 99 192 7 98-52 175.5T908 1105q-22 4-47 4-34 0-66.5-10t-56.5-23-55.5-38-48-41.5T586 949Q210 574 195 559q-30-27-45-41.5t-37.5-41-32-46.5-16-47.5T63 326q9-62 53.5-95t99.5-33q74 0 125 51l548 548q36 36 20 75-7 16-21.5 26T855 908q-26 0-50-23-13-12-39-38L425 509q-15-15-35.5-15.5T355 507t-14 34.5 14 34.5q327 333 361 367 35 35 67.5 51.5T862 1011q14 0 29-1 44-8 74.5-35.5T1009 906q14-47 2-96.5T964 725q-12-11-32-32t-79.5-81T738 497 613.5 373.5 490.5 254 394 165t-57-45q-56-27-120-27-70 0-129 32t-93 89q-48 78-35 173t81 163l511 511q71 72 111 96 91 55 198 55 80 0 152-33 78-36 129.5-103t66.5-154q17-93-11-183.5T1104 582L622 106q-15-15-36-16t-37 14-17.5 34 14.5 35z"/><glyph unicode="&#xe143;" d="M649 949q48 68 109.5 104t121.5 38.5 118.5-20 102.5-64 71-100.5 27-123q0-57-33.5-117.5t-94-124.5T945 414.5 795 262 649 88q-62 85-145.5 174t-150 152.5T227 542t-93.5 124.5T1e2 784q0 64 28 123t73 100.5 104 64 119 20 120.5-38.5T649 949zm247 23q-33 0-64.5-19T775 907t-47.5-53.5T684 808t-37.5-19-36 19-40 45.5-43 53.5-54 46-65.5 19q-67 0-122.5-55.5T230 784q0-23 13.5-51t46-65 57.5-63 76-75l22-22q15-14 44-44t50.5-51 46-44 41-35 23-12 23.5 12 42.5 36 46 44 52.5 52 44 43q4 4 12 13 43 41 63.5 62t52 55 46 55 26 46 11.5 44q0 79-53 133.5T896 972z"/><glyph unicode="&#xe144;" d="M776.5 1214q93.5.0 159.5-66l141-141q66-66 66-160 0-42-28-95.5t-62-87.5l-29-29q-31 53-77 99l-18 18 95 95-247 248-389-389 212-212-105-106-19 18-141 141q-66 66-66 159t66 159l283 283q65 66 158.5 66zM6e2 706l105 105q10-8 19-17l141-141q66-66 66-159t-66-159L582 52q-66-66-159-66T264 52L123 193q-66 66-66 159.5T123 512l55 55q29-55 75-102l18-17-95-95 247-248 389 389z"/><glyph unicode="&#xe145;" d="M603 12e2q85 0 162-15t127-38 79-48 29-46V1e2q0-41-29.5-70.5T9e2.0H3e2q-41 0-70.5 29.5T2e2 1e2v953q0 21 30 46.5t81 48 129 37.5 163 15zM3e2 1e3V3e2h6e2v7e2H3e2zM6e2 254q-43 0-73.5-30.5T496 150t30.5-73.5T6e2 46t73.5 30.5T704 150t-30.5 73.5T6e2 254z"/><glyph unicode="&#xe146;" d="M902 1185l283-282q15-15 15-36t-14.5-35.5T1150 817t-35 15l-36 35-279-267V3e2L588 510 280 203 0 0l203 280 307 308-210 212h3e2l267 279-35 36q-15 14-15 35t14.5 35.5T867 12e2t35-15z"/><glyph unicode="&#xe148;" d="M7e2 1248v-78q38-5 72.5-14.5T848 1124t71-53.5 52-84T995 868H836q-4 36-10.5 59t-21 45-40 35.5T7e2 1028V721l64-13q34-7 64-16.5t70-32 67.5-52.5 47.5-80 20-112q0-139-89-224T7e2 94V17H6e2v79q-150 16-237 103-40 40-52.5 93.5T295 432h139q5-77 48.5-126T6e2 241v335l-27 8q-46 14-79 26.5t-72 36-63 52-40 72.5-16 98q0 70 25 126t67.5 92 94.5 57 110 27v77h1e2zM6e2 754v274q-29-4-50-11t-42-21.5-31.5-41.5-10.5-65q0-29 7-50.5t16.5-34T518 782t31.5-14 37.5-10q9-3 13-4zM7e2 547V237q22 2 42.5 6.5t45 15.5 41.5 27 29 42 12 59.5-12.5 59.5-38 44.5-53 31T7e2 547z"/><glyph unicode="&#xe149;" d="M561 1197q84 0 160.5-40T845 1047.5 892 9e2H739q0 40-19.5 71.5T670 1020t-59.5 26-55.5 9q-37 0-79-14.5t-62-35.5q-41-44-41-101 0-26 13.5-63t26.5-61 37-66q6-9 9-14h241V6e2H503q8-50-2.5-115T469 390q-45-62-99-112 34 10 83 17.5t71 7.5q32 1 102-16t104-17q83 0 136 30l50-147q-31-19-58-30.5T803 107t-42-4.5-46-.5q-23 0-76 17t-111 32.5-96 11.5q-39-3-82-16t-67-25l-23-11-55 145q4 3 16 11t15.5 10.5 13 9 15.5 12 14.5 14T297 331q48 55 54 126.5T321 6e2H1e2v1e2h166q-23 47-44 104-7 20-12 41.5t-6 55.5 6 66.5 29.5 70.5 58.5 71q97 88 263 88z"/><glyph unicode="&#xe150;" d="M4e2 3e2h150q21 0 25-11t-10-25L335 14Q321-1 3e2-1t-35 15L35 264q-14 14-10 25t25 11h150v9e2h2e2V3e2zm535 884 230-249q14-14 10-24.5t-25-10.5H1e3V0H8e2v9e2H650q-21 0-25 10.5t10 24.5l230 249q14 15 35 15t35-15z"/><glyph unicode="&#xe151;" d="M1e3 7e2H9e2v1e2H8e2V7e2H7e2v5e2h3e2V7e2zM4e2 3e2h150q21 0 25-11t-10-25L335 14Q321-1 3e2-1t-35 15L35 264q-14 14-10 25t25 11h150v9e2h2e2V3e2zm401 8e2V9e2h1e2v2e2H801zM1e3 350 8e2 1e2h2e2V0H7e2v150l2e2 250H7e2v1e2h3e2V350z"/><glyph unicode="&#xe152;" d="M4e2 3e2h150q21 0 25-11t-10-25L335 14Q321-1 3e2-1t-35 15L35 264q-14 14-10 25t25 11h150v9e2h2e2V3e2zm6e2 750-2e2-250h2e2V7e2H7e2v150l2e2 250H7e2v1e2h3e2v-150zM1e3.0H9e2v1e2H8e2V0H7e2v5e2h3e2V0zM801 4e2V2e2h1e2v2e2H801z"/><glyph unicode="&#xe153;" d="M4e2 3e2h150q21 0 25-11t-10-25L335 14Q321-1 3e2-1t-35 15L35 264q-14 14-10 25t25 11h150v9e2h2e2V3e2zM1e3 7e2H9e2v4e2H8e2v1e2h2e2V7e2zM11e2.0H1e3v1e2H8e2v4e2h3e2V0zM901 4e2V2e2h1e2v2e2H901z"/><glyph unicode="&#xe154;" d="M4e2 3e2h150q21 0 25-11t-10-25L335 14Q321-1 3e2-1t-35 15L35 264q-14 14-10 25t25 11h150v9e2h2e2V3e2zm7e2 4e2H1e3v1e2H8e2v4e2h3e2V7e2zM901 11e2V9e2h1e2v2e2H901zM1e3.0H9e2v4e2H8e2v1e2h2e2V0z"/><glyph unicode="&#xe155;" d="M4e2 3e2h150q21 0 25-11t-10-25L335 14Q321-1 3e2-1t-35 15L35 264q-14 14-10 25t25 11h150v9e2h2e2V3e2zM9e2 1e3H7e2v2e2h2e2V1e3zM1e3 7e2H7e2v2e2h3e2V7e2zm1e2-3e2H7e2v2e2h4e2V4e2zm1e2-3e2H7e2v2e2h5e2V1e2z"/><glyph unicode="&#xe156;" d="M4e2 3e2h150q21 0 25-11t-10-25L335 14Q321-1 3e2-1t-35 15L35 264q-14 14-10 25t25 11h150v9e2h2e2V3e2zm8e2 7e2H7e2v2e2h5e2V1e3zM11e2 7e2H7e2v2e2h4e2V7e2zM1e3 4e2H7e2v2e2h3e2V4e2zM9e2 1e2H7e2v2e2h2e2V1e2z"/><glyph unicode="&#xe157;" d="M350 11e2h4e2q162 0 256-93.5t94-256.5V350q0-165-93.5-257.5T750 0H350Q185 0 92.5 92.5T0 350v4e2q0 165 92.5 257.5T350 11e2zM8e2 9e2H3e2q-41 0-70.5-29.5T2e2 8e2V3e2q0-41 29.5-70.5T3e2 2e2h5e2q41 0 70.5 29.5T9e2 3e2v5e2q0 41-29.5 70.5T8e2 9e2z"/><glyph unicode="&#xe158;" d="M350 11e2h4e2q165 0 257.5-92.5T11e2 750V350q0-165-92.5-257.5T750 0H350Q187 0 93.5 92.5T0 350v4e2q0 163 94 256.5t256 93.5zM8e2 9e2H3e2q-41 0-70.5-29.5T2e2 8e2V3e2q0-41 29.5-70.5T3e2 2e2h5e2q41 0 70.5 29.5T9e2 3e2v5e2q0 41-29.5 70.5T8e2 9e2zM440 770l253-190q17-12 17-30t-17-30L440 330q-16-12-28-6.5T4e2 350v4e2q0 21 12 26.5t28-6.5z"/><glyph unicode="&#xe159;" d="M350 11e2h4e2q163 0 256.5-94t93.5-256V350q0-165-92.5-257.5T750 0H350Q185 0 92.5 92.5T0 350v4e2q0 163 92.5 256.5T350 11e2zM8e2 9e2H3e2q-41 0-70.5-29.5T2e2 8e2V3e2q0-41 29.5-70.5T3e2 2e2h5e2q41 0 70.5 29.5T9e2 3e2v5e2q0 41-29.5 70.5T8e2 9e2zM350 7e2h4e2q21 0 26.5-12t-6.5-28L580 407q-12-17-30-17t-30 17L330 660q-12 16-6.5 28t26.5 12z"/><glyph unicode="&#xe160;" d="M350 11e2h4e2q165 0 257.5-92.5T11e2 750V350q0-163-92.5-256.5T750 0H350Q187 0 93.5 94T0 350v4e2q0 165 92.5 257.5T350 11e2zM8e2 9e2H3e2q-41 0-70.5-29.5T2e2 8e2V3e2q0-41 29.5-70.5T3e2 2e2h5e2q41 0 70.5 29.5T9e2 3e2v5e2q0 41-29.5 70.5T8e2 9e2zM580 693l190-253q12-16 6.5-28T750 4e2H350q-21 0-26.5 12t6.5 28l190 253q12 17 30 17t30-17z"/><glyph unicode="&#xe161;" d="M550 11e2h4e2q165 0 257.5-92.5T13e2 750V350q0-165-92.5-257.5T950 0H550q-21 0-35.5 14.5T5e2 50v1e2q0 21 14.5 35.5T550 2e2h450q41 0 70.5 29.5T11e2 3e2v5e2q0 41-29.5 70.5T1e3 9e2H550q-21 0-35.5 14.5T5e2 950v1e2q0 21 14.5 35.5T550 11e2zM338 867l324-284q16-14 16-33t-16-33L338 233q-16-14-27-9t-11 26v150H50q-21 0-35.5 14.5T0 450v2e2q0 21 14.5 35.5T50 7e2h250v150q0 21 11 26t27-9z"/><glyph unicode="&#xe162;" d="M793 1182l9-9q8-10 5-27-3-11-79-225.5T650 699l3e2 1q24 0 32.5-17.5T977 647q-1 0-133.5-155t-267-312.5T438 17Q426 2 412 2h-9l-9 8q-9 11-4 32 2 9 42 123.5T511 390l39 110H248q-23 0-31 19-10 21 6 41 75 86 209.5 237.5t228 257T759 1166q9 16 25 16h9z"/><glyph unicode="&#xe163;" d="M350 11e2h4e2q21 0 35.5-14.5T8e2 1050V950q0-21-14.5-35.5T750 9e2H3e2q-41 0-70.5-29.5T2e2 8e2V3e2q0-41 29.5-70.5T3e2 2e2h450q21 0 35.5-14.5T8e2 150V50q0-21-14.5-35.5T750 0H350Q185 0 92.5 92.5T0 350v4e2q0 165 92.5 257.5T350 11e2zM938 867l324-284q16-14 16-33t-16-33L938 233q-16-14-27-9t-11 26v150H650q-21 0-35.5 14.5T6e2 450v2e2q0 21 14.5 35.5T650 7e2h250v150q0 21 11 26t27-9z"/><glyph unicode="&#xe164;" d="M750 12e2h4e2q21 0 35.5-14.5t14.5-35.5V750q0-21-10.5-25t-24.5 10l-109 109-312-312q-15-15-35.5-15T673 532L532 673q-15 15-15 35.5t15 35.5l312 312-109 109q-14 14-10 24.5t25 10.5zM456 9e2H3e2q-41 0-70.5-29.5T2e2 8e2V3e2q0-41 29.5-70.5T3e2 2e2h5e2q41 0 70.5 29.5T9e2 3e2v148l2e2 2e2V350q0-165-93.5-257.5T750 0H350Q185 0 92.5 92.5T0 350v4e2q0 165 92.5 257.5T350 11e2h3e2z"/><glyph unicode="&#xe165;" d="M6e2 1186q119 0 227.5-46.5t187-125 125-187T1186 6e2t-46.5-227.5-125-187-187-125T6e2 14 372.5 60.5t-187 125-125 187T14 6e2t46.5 227.5 125 187 187 125T6e2 1186zm0-164q-115 0-212-56.5T234.5 812 178 6e2t56.5-212T388 234.5 6e2 178t212 56.5T965.5 388t56.5 212-56.5 212T812 965.5 6e2 1022zm0-228q80 0 137-57t57-137-57-137-137-57-137 57-57 137 57 137 137 57z"/><glyph unicode="&#xe166;" d="M450 12e2h2e2q21 0 35.5-14.5T7e2 1150V8e2h245q20 0 25-11t-9-26L578 337q-14-15-33.5-15T512 337L133 763q-13 15-8.5 26t25.5 11h250v350q0 21 14.5 35.5T450 12e2zM50 3e2h1e3q21 0 35.5-14.5T11e2 250V0H0v250q0 21 14.5 35.5T50 3e2zM9e2 2e2v-50h1e2v50H9e2z"/><glyph unicode="&#xe167;" d="M583 1182l378-435q14-15 9-31t-26-16H7e2V450q0-20-17-35t-39-15H444q-20 0-32 14.5T4e2 450v250H150q-20 0-25.5 16.5T133 748l383 431q14 16 33.5 17t33.5-14zM50 3e2h1e3q21 0 35.5-14.5T11e2 250V0H0v250q0 21 14.5 35.5T50 3e2zM9e2 2e2v-50h1e2v50H9e2z"/><glyph unicode="&#xe168;" d="M396 723l369 369q7 7 17.5 7t17.5-7l139-139q7-8 7-18.5t-7-17.5L414 392q-7-8-17.5-8t-17.5 8L87 683q-7 8-7 18t7 18l139 139q8 7 18.5 7t17.5-7zM50 3e2h1e3q21 0 35.5-14.5T11e2 250V0H0v250q0 21 14.5 35.5T50 3e2zM9e2 2e2v-50h1e2v50H9e2z"/><glyph unicode="&#xe169;" d="M135 1023l142 142q14 14 35 14t35-14l77-77-212-212-77 76q-14 15-14 36t14 35zM655 855l210 210q14 14 24.5 10t10.5-25l-2-599q-1-20-15.5-35T847 401l-597-1q-21 0-25 10.5t10 24.5l208 208-154 155 212 212zM50 3e2h1e3q21 0 35.5-14.5T11e2 250V0H0v250q0 21 14.5 35.5T50 3e2zM9e2 2e2v-50h1e2v50H9e2z"/><glyph unicode="&#xe170;" d="M350 12e2l599-2q20-1 35-15.5t15-35.5l1-597q0-21-10.5-25T965 535L757 743 602 589 390 801l155 154-210 210q-14 14-10 24.5t25 10.5zM524 512l-76-77q-15-14-36-14t-35 14L235 577q-14 14-14 35t14 35l77 77zM50 3e2h1e3q21 0 35.5-14.5T11e2 250V0H0v250q0 21 14.5 35.5T50 3e2zM9e2 2e2v-50h1e2v50H9e2z"/><glyph unicode="&#xe171;" d="M12e2 103 717 379 403-20v423H4l1196 796V103zM483 424V194l683 953z"/><glyph unicode="&#xe172;" d="M11e2 1e3V150q0-21-14.5-35.5T1050 1e2H9e2v4e2H2e2V1e2H50q-21 0-35.5 14.5T0 150v1e3q0 20 14.5 35t35.5 15h250V9e2h5e2v3e2h1e2zm-4e2.0H6e2v2e2h1e2V1e3z"/><glyph unicode="&#xe173;" d="M11e2 1e3l-2-149-299-299-95 95q-9 9-21.5 9t-21.5-9L512 5e2H2e2V1e2H50q-21 0-35.5 14.5T0 150v1e3q0 20 14.5 35t35.5 15h250V9e2h5e2v3e2h1e2zm-4e2.0H6e2v2e2h1e2V1e3zm432-362 106-106q7-7 7-17.5t-7-17.5L818 76q-8-7-18-7t-18 7L580 279q-8 7-8 17.5t8 17.5l106 106q7 8 17.5 8t17.5-8l79-79 297 297q7 7 17.5 7t17.5-7z"/><glyph unicode="&#xe174;" d="M11e2 1e3V731L997 628 863 762q-15 15-33.5 16.5T795 766L529 5e2H2e2V1e2H50q-21 0-35.5 14.5T0 150v1e3q0 20 14.5 35t35.5 15h250V9e2h5e2v3e2h1e2zm-4e2.0H6e2v2e2h1e2V1e3zm502-428 70-70q15-15 15-35.5t-15-35.5l-131-131 131-131q15-15 15-35.5T1272 98l-70-70q-15-15-35.5-15T1131 28L1e3 159 869 28q-15-15-35.5-15T798 28l-70 70q-15 15-15 35.5t15 35.5l131 131-131 131q-15 15-15 35.5t15 35.5l70 70q15 15 35.5 15t35.5-15l131-131 131 131q15 15 35.5 15t35.5-15z"/><glyph unicode="&#xe175;" d="M11e2 1e3V7e2H750q-21 0-35.5-14.5T7e2 650V5e2H2e2V1e2H50q-21 0-35.5 14.5T0 150v1e3q0 20 14.5 35t35.5 15h250V9e2h5e2v3e2h1e2zm-4e2.0H6e2v2e2h1e2V1e3zM850 6e2h1e2q21 0 35.5-14.5T1e3 550V3e2h150q21 0 25-10.5t-10-24.5L935 35q-14-14-35-14t-35 14L635 265q-14 14-10 24.5t25 10.5h150v250q0 21 14.5 35.5T850 6e2z"/><glyph unicode="&#xe176;" d="M11e2 1e3V6e2L935 765q-14 15-35 15t-35-15L602 5e2H2e2V1e2H50q-21 0-35.5 14.5T0 150v1e3q0 20 14.5 35t35.5 15h250V9e2h5e2v3e2h1e2zm-4e2.0H6e2v2e2h1e2V1e3zM935 565l230-229q14-15 10-25.5t-25-10.5H1e3V50q0-20-14.5-35T950 0H850q-21 0-35.5 15T8e2 50v250H650q-21 0-25 10.5t10 25.5l230 229q14 15 35 15t35-15z"/><glyph unicode="&#xe177;" d="M50 11e2h11e2q21 0 35.5-14.5t14.5-35.5V9e2H0v150q0 21 14.5 35.5T50 11e2zM12e2 8e2V250q0-21-14.5-35.5T1150 2e2H50q-21 0-35.5 14.5T0 250v550h12e2zM1e2 5e2V3e2h4e2v2e2H1e2z"/><glyph unicode="&#xe178;" d="M935 1165l248-230q14-14 14-35t-14-35L935 635q-14-14-24.5-10T9e2 650v150H5e2v2e2h4e2v150q0 21 10.5 25t24.5-10zM2e2 8e2h-50q-21 0-35.5 14.5T1e2 850v1e2q0 21 14.5 35.5T150 1e3h50V8e2zm2e2.0H3e2v2e2h1e2V8e2zM18 435l247 230q14 14 24.5 10t10.5-25V5e2h4e2V3e2H3e2V150q0-21-10.5-25T265 135L18 365Q3 379 3 4e2t15 35zM9e2 3e2H8e2v2e2h1e2V3e2zM1e3 5e2h51q20 0 34.5-14.5T11e2 450V350q0-21-14.5-35.5T1051 3e2h-51v2e2z"/><glyph unicode="&#xe179;" d="M862 1073l276 116q25 18 43.5 8t18.5-41V50q0-21-14.5-35.5T1150 0H950q-21 0-35.5 14.5T9e2 50v397q-4 1-11 5t-24 17.5-30 29-24 42-11 56.5v359q0 31 18.5 65t43.5 52zM550 12e2q22 0 34.5-12.5T599 1163l1-13V7e2q0-28-10.5-59.5t-25-56-29-45T510 508l-10-11V50q0-21-14.5-35.5T450 0H250q-21 0-35.5 14.5T2e2 50v447q-4 4-11 11.5T165 539t-30 46-24 55-11 60v450q0 2 .5 5.5t4 12 8.5 15 14.5 12 22.5 5.5q20 0 32.5-12.5T197 1163l3-13V8e2h1e2v350 5.5t2.5 12 7 15 15 12 25.5 5.5q23 0 35.5-12.5T399 1163l1-13V8e2h1e2v350q0 2 .5 5.5t3 12 7 15 15 12 24.5 5.5z"/><glyph unicode="&#xe180;" d="M12e2 11e2v-56q-4 0-11-.5t-24-3-30-7.5-24-15-11-24V106q0-22 25-34.5t50-13.5l25-2V0H8e2v56q75 0 87.5 6.5T9e2 106v394H4e2V106q0-37 12.5-43.5T5e2 56V0H1e2v56q4 0 11 .5t24 3 30 7.5 24 15 11 24v888q0 22-25 34.5t-50 13.5l-25 2v56h4e2v-56q-75 0-87.5-6.5T4e2 994V6e2h5e2v394q0 37-12.5 43.5T8e2 1044v56h4e2z"/><glyph unicode="&#xe181;" d="M675 1e3h375q21 0 35.5-14.5T11e2 950V8e2H995l-295-98v98L5e2 1e3H1e2l1e2 1e2h375zM1e2 9e2h3e2q41 0 70.5-29.5T5e2 8e2V3e2q0-41-29.5-70.5T4e2 2e2H1e2q-41 0-70.5 29.5T0 3e2v5e2q0 41 29.5 70.5T1e2 9e2zm0-1e2V6e2h3e2v2e2H1e2zm1e3-265-4e2-133v163l4e2 133V535zM1e2 5e2V3e2h3e2v2e2H1e2zm1e3-102V150q0-21-14.5-35.5T1050 1e2H675L575 0H2e2L1e2 1e2h4e2l2e2 2e2h105z"/><glyph unicode="&#xe182;" d="M17 1007l162 162q17 17 40 14t37-22l139-194q14-20 11-44.5T386 881L267 763q102-142 228-268t267-227l119 118q17 17 42.5 19t44.5-12l192-136q19-14 22.5-37.5T1169 179L1006 17q-3-1-9.5-1T967 18t-47.5 6T857 38.5 779.5 65t-90 42.5-101.5 60-111 83T358 359q-74 74-133.5 150.5T130 648 70 767.5t-34.5 1e2-15 74.5-4.5 48z"/><glyph unicode="&#xe183;" d="M6e2 11e2q92 0 175-10.5t141.5-27T1025 1026t81.5-40 53.5-37 31-27l9-10V712q0-21-14.5-33t-34.5-9l-202 34q-20 3-34.5 20T9e2 762v146q-141 24-3e2 24t-3e2-24V762q0-21-14.5-38T251 704L49 670q-20-3-34.5 9T0 712v2e2q3 4 9.5 10.5t31 26 54 37.5 80.5 39.5 109 37.5 141 26.5 175 10.5zm0-305q56 0 97-9.5t60-23.5 30-28 12-24l1-10v-50l365-303q14-15 24.5-40t10.5-45V50q0-21-14.5-35.5T1150 0H50Q29 0 14.5 14.5T0 50v212q0 20 10.5 45T35 347l365 303v50q0 4 1 10.5t12 23 30 29 60 22.5 97 10z"/><glyph unicode="&#xe184;" d="M11e2 7e2 9e2 5e2H3e2L1e2 7e2v5e2h2e2V1e3h2e2v2e2h2e2V1e3h2e2v2e2h2e2V7e2zM250 4e2h7e2q21 0 35.5-14.5T1e3 350t-14.5-35.5T950 3e2h-12l137-1e2H125l137 1e2h-12q-21 0-35.5 14.5T2e2 350t14.5 35.5T250 4e2zM50 1e2h11e2q21 0 35.5-14.5T12e2 50V0H0v50q0 21 14.5 35.5T50 1e2z"/><glyph unicode="&#xe185;" d="M7e2 11e2H6e2q-41 0-70.5-29.5T5e2 1e3V0h3e2v1e3q0 41-29.5 70.5T7e2 11e2zm4e2-3e2H1e3q-41 0-70.5-29.5T9e2 7e2V0h3e2v7e2q0 41-29.5 70.5T11e2 8e2zM4e2.0H1e2v4e2q0 41 29.5 70.5T2e2 5e2h1e2q41 0 70.5-29.5T4e2 4e2V0z"/><glyph unicode="&#xe186;" d="M2e2 11e2h7e2q124 0 212-88t88-212V3e2q0-124-88-212T9e2.0H2e2Q76 0-12 88t-88 212v5e2q0 124 88 212t212 88zM1e2 9e2V2e2h9e2v7e2H1e2zM5e2 7e2H3e2V6e2h2e2V3e2H2e2v1e2h2e2v1e2H2e2v3e2h3e2V7e2zm4e2.0V4e2L8e2 3e2H6e2v5e2h2e2zm-2e2.0V4e2h1e2v3e2H7e2z"/><glyph unicode="&#xe187;" d="M2e2 11e2h7e2q124 0 212-88t88-212V3e2q0-124-88-212T9e2.0H2e2Q76 0-12 88t-88 212v5e2q0 124 88 212t212 88zM1e2 9e2V2e2h9e2v7e2H1e2zM5e2 3e2H4e2v2e2H3e2V3e2H2e2v5e2h1e2V6e2h1e2v2e2h1e2V3e2zM9e2 7e2V4e2L8e2 3e2H6e2v5e2h2e2zm-2e2.0V4e2h1e2v3e2H7e2z"/><glyph unicode="&#xe188;" d="M2e2 11e2h7e2q124 0 212-88t88-212V3e2q0-124-88-212T9e2.0H2e2Q76 0-12 88t-88 212v5e2q0 124 88 212t212 88zM1e2 9e2V2e2h9e2v7e2H1e2zM5e2 7e2H3e2V4e2h2e2V3e2H2e2v5e2h3e2V7e2zm4e2.0H7e2V4e2h2e2V3e2H6e2v5e2h3e2V7e2z"/><glyph unicode="&#xe189;" d="M2e2 11e2h7e2q124 0 212-88t88-212V3e2q0-124-88-212T9e2.0H2e2Q76 0-12 88t-88 212v5e2q0 124 88 212t212 88zM1e2 9e2V2e2h9e2v7e2H1e2zM5e2 4e2 2e2 550l3e2 150V4e2zM9e2 550 6e2 4e2v3e2z"/><glyph unicode="&#xe190;" d="M2e2 11e2h7e2q124 0 212-88t88-212V3e2q0-124-88-212T9e2.0H2e2Q76 0-12 88t-88 212v5e2q0 124 88 212t212 88zM1e2 9e2V2e2h9e2v7e2H1e2zM9e2 3e2H2e2v5e2h7e2V3e2zM8e2 7e2H670q-38 0-66.5-43T575 549t27-107 68-42h130v3e2zm-5e2.0V4e2h130q41 0 68 42t27 107-28.5 108-66.5 43H3e2z"/><glyph unicode="&#xe191;" d="M2e2 11e2h7e2q124 0 212-88t88-212V3e2q0-124-88-212T9e2.0H2e2Q76 0-12 88t-88 212v5e2q0 124 88 212t212 88zM1e2 9e2V2e2h9e2v7e2H1e2zM5e2 7e2H3e2V6e2h2e2V3e2H2e2v1e2h2e2v1e2H2e2v3e2h3e2V7e2zM9e2 3e2H8e2v4e2H7e2v1e2h2e2V3e2zm-2e2.0H6e2v1e2h1e2V3e2z"/><glyph unicode="&#xe192;" d="M2e2 11e2h7e2q124 0 212-88t88-212V3e2q0-124-88-212T9e2.0H2e2Q76 0-12 88t-88 212v5e2q0 124 88 212t212 88zM1e2 9e2V2e2h9e2v7e2H1e2zM3e2 7e2h2e2V3e2H2e2v5e2h1e2V7e2zM9e2 3e2H8e2v4e2H7e2v1e2h2e2V3e2zM3e2 6e2V4e2h1e2v2e2H3e2zM7e2 3e2H6e2v1e2h1e2V3e2z"/><glyph unicode="&#xe193;" d="M2e2 11e2h7e2q124 0 212-88t88-212V3e2q0-124-88-212T9e2.0H2e2Q76 0-12 88t-88 212v5e2q0 124 88 212t212 88zM1e2 9e2V2e2h9e2v7e2H1e2zM5e2 5e2 301 3e2H201v50l199 2e2v150H2e2v1e2h3e2V5e2zM9e2 3e2H8e2v4e2H7e2v1e2h2e2V3e2zm-199 0H601v1e2h1e2V3e2z"/><glyph unicode="&#xe194;" d="M6e2 1191q120 0 229.5-47t188.5-126 126-188.5 47-229.5-47-229.5T1018 182 829.5 56 6e2 9 370.5 56 182 182 56 370.5 9 6e2t47 229.5T182 1018t188.5 126 229.5 47zm0-170q-114 0-211-56.5T235.5 811 179 6e2t56.5-211T389 235.5 6e2 179t211 56.5T964.5 389t56.5 211-56.5 211T811 964.5 6e2 1021zM8e2 7e2H5e2V5e2h3e2V4e2H5e2L4e2 5e2v2e2l1e2 1e2h3e2V7e2z"/><glyph unicode="&#xe195;" d="M6e2 1191q120 0 229.5-47t188.5-126 126-188.5 47-229.5-47-229.5T1018 182 829.5 56 6e2 9 370.5 56 182 182 56 370.5 9 6e2t47 229.5T182 1018t188.5 126 229.5 47zm0-170q-114 0-211-56.5T235.5 811 179 6e2t56.5-211T389 235.5 6e2 179t211 56.5T964.5 389t56.5 211-56.5 211T811 964.5 6e2 1021zM8e2 7e2V6e2l-50-50 1e2-1e2v-50H750L650 5e2H5e2V4e2H4e2v4e2h3e2zm-3e2.0V6e2h2e2v1e2H5e2z"/><glyph unicode="&#xe197;" d="M503 1089q110 0 200.5-59.5T838 873q44 14 90 14 120 0 205-86.5t85-207-85-207T928 3e2H8e2v250q0 21-14.5 35.5T750 6e2H450q-21 0-35.5-14.5T4e2 550V3e2H178q-80 0-136 57.5T-14 494q0 69 43 122.5T137 684q-2 19-2 37 0 1e2 49 185t134 134 185 49zm22-589h150q10 0 17.5-7.5T7e2 475V2e2h137q21 0 26-11.5t-8-27.5L632-83q-13-16-32-16t-32 16L345 161q-13 16-8 27.5t26 11.5h137v275q0 10 7.5 17.5T525 5e2z"/><glyph unicode="&#xe198;" d="M502 1089q110 0 201-59.5T838 873q43 15 89 15 121 0 206-86.5t86-206.5q0-99-60-181t-150-110L631 664q-13 16-31.5 16T568 664L187 299h-9q-79 0-135.5 57.5T-14 493q0 69 43 122.5T137 683q-2 19-2 38 0 1e2 49 184.5t133.5 134T502 1089zM632 467l223-228q13-16 8-27.5T837 2e2H7e2V-75q0-10-7.5-17.5T675-1e2H525q-10 0-17.5 7.5T5e2-75v275H363q-21 0-26 11.5t8 27.5q199 204 223 228 19 19 31.5 19t32.5-19z"/><glyph unicode="&#xe199;" d="M7e2 1e2v1e2h4e2L830 5e2h170L730 8e2h170l-3e2 333-3e2-333h170L2e2 5e2h170L1e2 2e2h4e2V1e2h-50q-21 0-35.5-14.5T4e2 50V0h4e2v50q0 21-14.5 35.5T750 1e2h-50z"/><glyph unicode="&#xe200;" d="M6e2 1179q94 0 167.5-56.5T867 977q89-6 150.5-71.5T1079 750q0-61-29.5-112.5T970 555q9-29 9-55 0-74-52.5-126.5T8e2 321q-55 0-1e2 30V1e2q21 0 35.5-14.5T750 50V0H450v50q0 21 14.5 35.5T5e2 1e2v251q-45-30-1e2-30-74 0-126.5 52.5T221 5e2q0 18 4 38-47 21-75.5 65T121 7e2q0 74 52.5 126.5T3e2 879q5 0 23-2 0 2-1 10t-1 13q0 116 81.5 197.5T6e2 1179z"/><glyph unicode="&#xe201;" d="M1010 1010q111-111 150.5-260.5t0-299T1010 190q-83-83-191.5-126.5T6e2 20 381.5 63.5 190 190Q79 301 39.5 450.5t0 299T190 1010q83 83 191.5 126.5T6e2 1180t218.5-43.5T1010 1010zm-534 55q-4 0-8-1-121-34-209.5-122.5T136 732q-4-12 2.5-23t18.5-14l36-9q3-1 7-1 23 0 29 22 27 96 98 166 70 71 166 98 11 3 17.5 13.5t3.5 22.5l-9 35q-3 13-14 19-7 4-15 4zm36-145q-4 0-9-2-80-24-138.5-82.5T282 697q-4-13 2-24t19-14l34-9q4-1 8-1 22 0 28 21 18 58 58.5 98.5T529 827q12 3 18 13.5t3 21.5l-9 35q-3 12-14 19-7 4-15 4zM719.5 719.5Q670 769 6e2 769t-119.5-49.5T431 6e2t49.5-119.5T6e2 431t119.5 49.5T769 6e2t-49.5 119.5zM855 551q-22 0-28-21-18-58-58.5-98.5T670 374q-11-4-17-14.5t-3-21.5l9-35q3-12 14-19 7-4 15-4 4 0 9 2 80 24 138.5 82.5T918 503q4 13-2.5 24T897 541l-34 9q-4 1-8 1zm145-36q-23 0-29-22-27-96-98-166-70-71-166-98-11-3-17.5-13.5T686 193l9-35q3-13 14-19 7-4 15-4 4 0 8 1 121 34 209.5 122.5T1064 468q4 12-2.5 23t-18.5 14l-36 9q-3 1-7 1z"/><glyph unicode="&#xe202;" d="M7e2 8e2h3e2V420H820v2e2H480V420H1e2v755q0 10 7.5 17.5t17.5 7.5h575V8e2zM1e3 9e2H8e2v2e2zM7e2 3e2h162L650 88 438 3e2h162v2e2h1e2V3e2zM520 0H125q-10 0-17.5 7.5T1e2 25v395zM1e3 220V25q0-10-7.5-17.5T975 0H780z"/><glyph unicode="&#xe203;" d="M7e2 8e2h3e2V280L650 630 1e2 80v1095q0 10 7.5 17.5t17.5 7.5h575V8e2zM1e3 9e2H8e2v2e2zM862 2e2H7e2V0H6e2v2e2H438l212 212zM480 0H125q-10 0-17.5 7.5T1e2 25v55h380V0zM1e3 80V25q0-10-7.5-17.5T975 0H820v80h180z"/><glyph unicode="&#xe204;" d="M1162 8e2H1e3V6e2h1e2l1e2-1e2H9e2v3e2H738l212 212zm-962 0h2e2q27 0 40-2t29.5-10.5 23.5-30 7-57.5h3e2V6e2H2e2L0 250v450h1e2q0 36 7 57.5t23.5 30T160 798t40 2zM8e2 4e2h240L8e2.0H0l3e2 5e2h5e2V4e2z"/><glyph unicode="&#xe205;" d="M650 11e2h1e2q21 0 35.5-14.5T8e2 1050v-50h50q21 0 35.5-14.5T9e2 950V850q0-21-14.5-35.5T850 8e2H550q-21 0-35.5 14.5T5e2 850v1e2q0 21 14.5 35.5T550 1e3h50v50q0 21 14.5 35.5T650 11e2zM1e3 850v150q41 0 70.5-29.5T11e2 9e2V1e2q0-41-29.5-70.5T1e3.0H4e2q-1 0-20 4l246 246-326 326v324q0 41 29.5 70.5T4e2 1e3V850q0-62 44-106t106-44h3e2q62 0 106 44t44 106zM412 250 2e2 38v162H0v1e2h2e2v162z"/><glyph unicode="&#xe206;" d="M450 11e2h1e2q21 0 35.5-14.5T6e2 1050v-50h50q21 0 35.5-14.5T7e2 950V850q0-21-14.5-35.5T650 8e2H350q-21 0-35.5 14.5T3e2 850v1e2q0 21 14.5 35.5T350 1e3h50v50q0 21 14.5 35.5T450 11e2zM8e2 850v150q41 0 70.5-29.5T9e2 9e2V4e2H7e2V1e2h2e2q0-36-7-57.5t-23.5-30T840 2t-40-2H2e2q-41 0-70.5 29.5T1e2 1e2v8e2q0 41 29.5 70.5T2e2 1e3V850q0-62 44-106t106-44h3e2q62 0 106 44t44 106zm412-6e2L1e3 38v162H8e2v1e2h2e2v162z"/><glyph unicode="&#xe209;" d="M658 1197 1295 93q23-38 7-65.5T1242 0H-34q-44 0-60 27.5t7 65.5l637 1104q22 39 54 39t54-39zm46-397H496q-20 0-32-14.5t-8-34.5l58-302q4-20 21.5-34.5T573 4e2h54q20 0 37.5 14.5T686 449l58 302q4 20-8 34.5T704 8e2zM5e2 3e2V2e2h2e2v1e2H5e2z"/><glyph unicode="&#xe210;" d="M425 11e2h250q10 0 17.5-7.5t7.5-17.5V925q0-10-7.5-17.5T675 9e2H425q-10 0-17.5 7.5T4e2 925v150q0 10 7.5 17.5t17.5 7.5zm0-3e2h250q10 0 17.5-7.5T7e2 775V625q0-10-7.5-17.5T675 6e2H425q-10 0-17.5 7.5T4e2 625v150q0 10 7.5 17.5T425 8e2zm4e2.0h250q10 0 17.5-7.5t7.5-17.5V625q0-10-7.5-17.5T1075 6e2H825q-10 0-17.5 7.5T8e2 625v150q0 10 7.5 17.5T825 8e2zM25 5e2h250q10 0 17.5-7.5T3e2 475V325q0-10-7.5-17.5T275 3e2H25q-10 0-17.5 7.5T0 325v150q0 10 7.5 17.5T25 5e2zm4e2.0h250q10 0 17.5-7.5T7e2 475V325q0-10-7.5-17.5T675 3e2H425q-10 0-17.5 7.5T4e2 325v150q0 10 7.5 17.5T425 5e2zm4e2.0h250q10 0 17.5-7.5t7.5-17.5V325q0-10-7.5-17.5T1075 3e2H825q-10 0-17.5 7.5T8e2 325v150q0 10 7.5 17.5T825 5e2zM25 2e2h250q10 0 17.5-7.5T3e2 175V25q0-10-7.5-17.5T275 0H25Q15 0 7.5 7.5T0 25v150q0 10 7.5 17.5T25 2e2zm4e2.0h250q10 0 17.5-7.5T7e2 175V25q0-10-7.5-17.5T675 0H425q-10 0-17.5 7.5T4e2 25v150q0 10 7.5 17.5T425 2e2zm4e2.0h250q10 0 17.5-7.5t7.5-17.5V25q0-10-7.5-17.5T1075 0H825q-10 0-17.5 7.5T8e2 25v150q0 10 7.5 17.5T825 2e2z"/><glyph unicode="&#xe211;" d="M7e2 12e2h1e2V1e3H7e2V9e2h350q62 0 86.5-39.5T1133 766l-66-132q-41-83-81-134H214q-40 51-81 134L67 766q-28 55-3.5 94.5T150 9e2h350v1e2H4e2v2e2h1e2v1e2h2e2v-1e2zM250 4e2h7e2q21 0 35.5-14.5T1e3 350t-14.5-35.5T950 3e2h-12l137-1e2H125l138 1e2h-13q-21 0-35.5 14.5T2e2 350t14.5 35.5T250 4e2zM50 1e2h11e2q21 0 35.5-14.5T12e2 50V0H0v50q0 21 14.5 35.5T50 1e2z"/><glyph unicode="&#xe212;" d="M6e2 13e2q40 0 68.5-29.5T697 12e2H503q0 41 28.5 70.5T6e2 13e2zM443 11e2h314q18-37 18-75 0-8-3-25h328q41 0 44.5-16.5T1114 945L939 8e2H261L83 945q-34 22-29 38.5t46 16.5h328q-3 17-3 25 0 38 18 75zM250 7e2h7e2q21 0 35.5-14.5T1e3 650t-14.5-35.5T950 6e2H8e2V4e2l275-2e2H125l275 2e2v2e2H250q-21 0-35.5 14.5T2e2 650t14.5 35.5T250 7e2zM50 1e2h11e2q21 0 35.5-14.5T12e2 50V0H0v50q0 21 14.5 35.5T50 1e2z"/><glyph unicode="&#xe213;" d="M6e2 1181q75 0 128-53t53-128-53-128-128-53-128 53-53 128 53 128 128 53zm2-383h46q34 0 55.5-28.5T725 683q0-76 39-183H440q39 107 39 183 0 58 21.5 86.5T557 798h45zM250 4e2h7e2q21 0 35.5-14.5T1e3 350t-14.5-35.5T950 3e2h-13l138-1e2H125l137 1e2h-12q-21 0-35.5 14.5T2e2 350t14.5 35.5T250 4e2zM50 1e2h11e2q21 0 35.5-14.5T12e2 50V0H0v50q0 21 14.5 35.5T50 1e2z"/><glyph unicode="&#xe214;" d="M6e2 13e2q47 0 92.5-53.5t71-123T789 1e3q0-78-55.5-133.5T6e2 811t-133.5 55.5T411 1e3q0 62 34 143l144-143 111 111-163 163q34 26 63 26zm2-502h46q34 0 55.5-28.5T725 683q0-76 39-183H440q39 107 39 183 0 58 21.5 86.5T557 798h45zM250 4e2h7e2q21 0 35.5-14.5T1e3 350t-14.5-35.5T950 3e2h-13l138-1e2H125l137 1e2h-12q-21 0-35.5 14.5T2e2 350t14.5 35.5T250 4e2zM50 1e2h11e2q21 0 35.5-14.5T12e2 50V0H0v50q0 21 14.5 35.5T50 1e2z"/><glyph unicode="&#xe215;" d="M6e2 12e2l3e2-161V9e2H6e2q0-57 18.5-108t50-91.5 63-72 70-67.5 57.5-61H329q-60 83-90.5 177.5T208 856t33 164.5 87.5 139.5 126 96.5T6e2 1298v-98zM250 4e2h7e2q21 0 35.5-14.5T1e3 350t-14.5-35.5T950 3e2h-13l138-1e2H125l137 1e2h-12q-21 0-35.5 14.5T2e2 350t14.5 35.5T250 4e2zM50 1e2h11e2q21 0 35.5-14.5T12e2 50V0H0v50q0 21 14.5 35.5T50 1e2z"/><glyph unicode="&#xe216;" d="M6e2 13e2q41 0 70.5-29.5T7e2 12e2v-78q46-26 73-72t27-1e2v-50H4e2v50q0 54 27 1e2t73 72v78q0 41 29.5 70.5T6e2 13e2zM4e2 8e2h4e2q54 0 1e2-27t72-73H8e2V6e2h2e2V5e2H8e2V4e2h2e2V3e2H8e2V2e2h2e2q0-83-58.5-141.5T8e2.0H4e2q-83 0-141.5 58.5T2e2 2e2v4e2q0 83 58.5 141.5T4e2 8e2z"/><glyph unicode="&#xe218;" d="M150 11e2h9e2q21 0 35.5-14.5t14.5-35.5V550q0-21-14.5-35.5T1050 5e2H150q-21 0-35.5 14.5T1e2 550v5e2q0 21 14.5 35.5T150 11e2zM125 4e2h950q10 0 17.5-7.5t7.5-17.5v-50q0-10-7.5-17.5T1075 3e2H792l224-224q13-13 13-31.5t-13-32T984.5-1 953 12l-88 88H341l-87-88Q241-1 222-1t-32 13.5-13 32T190 76l224 224H125q-10 0-17.5 7.5T1e2 325v50q0 10 7.5 17.5T125 4e2zM541 3e2 441 2e2h324L665 3e2H541z"/><glyph unicode="&#xe219;" d="M2e2 11e2h8e2q83 0 141.5-58.5T12e2 9e2V7e2h-1e2q0 41-29.5 70.5T1e3 8e2H750q-41 0-70.5-29.5T650 7e2H550q0 41-29.5 70.5T450 8e2H2e2q-41 0-70.5-29.5T1e2 7e2H0v2e2q0 83 58.5 141.5T2e2 11e2zM1e2 6e2h1e3q41 0 70.5-29.5T12e2 5e2V2e2H0v3e2q0 41 29.5 70.5T1e2 6e2zM3e2 1e2V50q0-21-14.5-35.5T250 0H150q-21 0-35.5 14.5T1e2 50v50h2e2zm8e2.0V50q0-21-14.5-35.5T1050 0H950q-21 0-35.5 14.5T9e2 50v50h2e2z"/><glyph unicode="&#xe221;" d="M480 1165l682-683q31-31 31-75.5t-31-75.5l-131-131H550L33 718Q1 749 1 793.5T33 869l295 296q31 31 75.5 31t76.5-31zM108 794l342-342 303 304-341 341zM250 1e2h8e2q21 0 35.5-14.5T11e2 50V0H2e2v50q0 21 14.5 35.5T250 1e2z"/><glyph unicode="&#xe223;" d="M1057 647l-189 506q-8 19-27.5 33t-40.5 14H4e2q-21 0-40.5-14t-27.5-33L143 647q-8-19 1.5-33t30.5-14h625V450q0-21 14.5-35.5T850 4e2t35.5 14.5T9e2 450v150h125q21 0 30.5 14t1.5 33zM897 0H302v50q0 21 14.5 35.5T352 1e2h50v50q0 21 14.5 35.5T452 2e2h48v3e2h2e2V2e2h47q21 0 35.5-14.5T797 150v-50h50q21 0 35.5-14.5T897 50V0z"/><glyph unicode="&#xe224;" d="M9e2 8e2h3e2V225q0-10-7.5-17.5T1175 2e2H8e2v591l-3e2 3e2v84q0 10 7.5 17.5t17.5 7.5h375V8e2zm3e2 1e2H1e3v2e2zM4e2 6e2h3e2V25q0-10-7.5-17.5T675 0H25Q15 0 7.5 7.5T0 25v950q0 10 7.5 17.5T25 1e3h375V6e2zM7e2 7e2H5e2v2e2z"/><glyph unicode="&#xe225;" d="M484 1095h195q75 0 146-32.5t124-86 89.5-122.5 48.5-142q18-14 35-20 31-10 64.5 6.5T1230 747q10 34-15 71-19 27-9 43 5 8 12.5 11t19-1 23.5-16q41-44 39-105-3-63-46-106.5T1150 6e2h-62q-7-55-35-117t-56-1e2l-39-234q-3-20-20-34.5T9e2 1e2H8e2q-21 0-33 14.5t-9 34.5l12 70q-49-14-91-14H484q-24 0-65 8l-11-64q-3-20-20-34.5T350 1e2H250q-21 0-33 14.5t-9 34.5l26 157q-84 74-128 175l-159 53q-19 7-33 26t-14 40v50q0 21 14.5 35.5T-50 7e2H74q11 87 56 166L19 961Q3 975 6.5 984.5T31 994h203q116 101 250 101zm191-95H425q-10 0-17.5-7.5T4e2 975v-50q0-10 7.5-17.5T425 9e2h250q10 0 17.5 7.5T7e2 925v50q0 10-7.5 17.5T675 1e3z"/><glyph unicode="&#xe226;" d="M641 9e2l423 247q19 8 42 2.5t37-21.5l32-38q14-15 12.5-36t-17.5-34l-139-120H641zM50 11e2h106q67 0 103-17t66-71l102-212h823q21 0 35.5-14.5T13e2 750v-50q0-21-14-40t-33-26L516 502q-23-4-40 6t-26 25q-42 67-1e2 67H50q-62 0-106 44t-44 106v2e2q0 62 44 106t106 44zM173 928H93q-19 0-28-14t-9-35v-56q0-51 42-51h134q16 0 21.5 8t5.5 24q0 11-16 45t-27 51q-18 28-43 28zM550 727q-32 0-54.5-22.5T473 650t22.5-54.5T550 573t54.5 22.5T627 650t-22.5 54.5T550 727zM130 389l152 130q18 19 34 24t31-3.5 24.5-17.5 25.5-28q28-35 50.5-51t48.5-13l63 5 48-179q13-61-3.5-97.5T536 79l-80-69q-47-40-109-35.5T244 26L114 177q-40 47-35.5 109.5T130 389zm250-12-102-88q-31-27 2-65l37-43q13-15 27.5-19.5T376 168l61 53q19 16 14 49-2 20-12 56t-17 45q-11 12-19 14t-23-8z"/><glyph unicode="&#xe227;" d="M625 12e2h150q10 0 17.5-7.5t7.5-17.5v-109q79-33 131-87.5T984 850q1-46-15-84.5t-39-61-46-38-39-21.5l-17-6q6 0 15-1.5t35-9 50-17.5 53-30 50-45 35.5-64 14.5-84q0-59-11.5-105.5T1041 206t-44-51-49.5-31.5-54.5-16-49.5-6.5-43.5-1V25q0-10-7.5-17.5T775 0H625q-10 0-17.5 7.5T6e2 25v75H5e2V25q0-10-7.5-17.5T475 0H325q-10 0-17.5 7.5T3e2 25v75H125q-10 0-17.5 7.5T1e2 125v150q0 10 7.5 17.5T125 3e2h75v6e2h-75q-10 0-17.5 7.5T1e2 925v150q0 10 7.5 17.5t17.5 7.5h175v75q0 10 7.5 17.5t17.5 7.5h150q10 0 17.5-7.5t7.5-17.5v-75h1e2v75q0 10 7.5 17.5t17.5 7.5zM4e2 9e2V7e2h263q28 0 48.5 10.5t30 25 15 29T762 790l1 10q0 4-.5 11t-6 24-15 30-30 24-48.5 11H4e2zm0-4e2V3e2h363q28 0 48.5 10.5t30 25 15 29T862 390l1 10q0 4-.5 11t-6 24-15 30-30 24-48.5 11H4e2z"/><glyph unicode="&#xe230;" d="M212 1198h780q86 0 147-61t61-147V574q0-51-18-142.5T1146 274l-18-66q-29-87-93.5-146.5T888 2H316q-82 0-147 59T76 208q-8 28-20 73T24 424.5 4 574v416q0 86 61 147t147 61zm388-153q-70 0-132.5-11.5T362 1003t-78.5-41.5-57-45-36-41T170 845l-6-12 156-243h560l156 243q-2 5-6 12.5t-20 29.5-36.5 42-57 44.5-79 42-105 29.5-132.5 12zM762 703H605l195 261z"/><glyph unicode="&#xe231;" d="M475 13e2h150q103 0 189-86t86-189V525q0-41-42-83t-83-42H325q-41 0-83 42t-42 83v5e2q0 103 86 189t189 86zM7e2 3e2V75q0-21-27-48T625 0H475q-21 0-48 27t-27 48v225h3e2z"/><glyph unicode="&#xe232;" d="M475 13e2h96q0-150 89.5-239.5T9e2 971V525q0-41-42-83t-83-42H325q-41 0-83 42t-42 83v5e2q0 103 86 189t189 86zM7e2 3e2V75q0-21-27-48T625 0H475q-21 0-48 27t-27 48v225h3e2z"/><glyph unicode="&#xe233;" d="M1294 767 656 484 278 654l-78-60V370l1e2-150V21L150 169 0 20v2e2l1e2 150v250q0 4-.5 10.5t0 9.5 1 8 3 8 6.5 6l47 40-147 65 642 283zM1e3 380 650 214 3e2 380v147l350-165 350 165V380z"/><glyph unicode="&#xe234;" d="M250 8e2q62 0 106-44t44-106-44-106-106-44-106 44-44 106 44 106 106 44zm4e2.0q62 0 106-44t44-106-44-106-106-44-106 44-44 106 44 106 106 44zm4e2.0q62 0 106-44t44-106-44-106-106-44-106 44-44 106 44 106 106 44z"/><glyph unicode="&#xe235;" d="M550 11e2q62 0 106-44t44-106-44-106-106-44-106 44-44 106 44 106 106 44zm0-4e2q62 0 106-44t44-106-44-106-106-44-106 44-44 106 44 106 106 44zm0-4e2q62 0 106-44t44-106-44-106T550 0 444 44t-44 106 44 106 106 44z"/><glyph unicode="&#xe236;" d="M125 11e2h950q10 0 17.5-7.5t7.5-17.5V925q0-10-7.5-17.5T1075 9e2H125q-10 0-17.5 7.5T1e2 925v150q0 10 7.5 17.5t17.5 7.5zm0-4e2h950q10 0 17.5-7.5t7.5-17.5V525q0-10-7.5-17.5T1075 5e2H125q-10 0-17.5 7.5T1e2 525v150q0 10 7.5 17.5T125 7e2zm0-4e2h950q10 0 17.5-7.5t7.5-17.5V125q0-10-7.5-17.5T1075 1e2H125q-10 0-17.5 7.5T1e2 125v150q0 10 7.5 17.5T125 3e2z"/><glyph unicode="&#xe237;" d="M350 12e2h5e2q162 0 256-93.5t94-256.5V350q0-165-93.5-257.5T850 0H350Q185 0 92.5 92.5T0 350v5e2q0 165 92.5 257.5T350 12e2zM9e2 1e3H3e2q-41 0-70.5-29.5T2e2 9e2V3e2q0-41 29.5-70.5T3e2 2e2h6e2q41 0 70.5 29.5T1e3 3e2v6e2q0 41-29.5 70.5T9e2 1e3zM350 9e2h5e2q21 0 35.5-14.5T9e2 850V550q0-21-14.5-35.5T850 5e2H350q-21 0-35.5 14.5T3e2 550v3e2q0 21 14.5 35.5T350 9e2zm50-1e2V6e2h4e2v2e2H4e2z"/><glyph unicode="&#xe238;" d="M150 11e2h1e3q21 0 35.5-14.5t14.5-35.5-14.5-35.5T1150 1e3h-50V8e2h50q21 0 35.5-14.5T12e2 750t-14.5-35.5T1150 7e2h-50V5e2h50q21 0 35.5-14.5T12e2 450t-14.5-35.5T1150 4e2h-50V2e2h50q21 0 35.5-14.5T12e2 150t-14.5-35.5T1150 1e2H150q-21 0-35.5 14.5T1e2 150t14.5 35.5T150 2e2h50v2e2h-50q-21 0-35.5 14.5T1e2 450t14.5 35.5T150 5e2h50v2e2h-50q-21 0-35.5 14.5T1e2 750t14.5 35.5T150 8e2h50v2e2h-50q-21 0-35.5 14.5T1e2 1050t14.5 35.5T150 11e2z"/><glyph unicode="&#xe239;" d="M650 1187q87-67 118.5-156t0-178T650 698q-87 66-118.5 155t0 178T650 1187zM3e2 8e2q124 0 212-88t88-212q-124 0-212 88t-88 212zm7e2.0q0-124-88-212t-212-88q0 124 88 212t212 88zM3e2 5e2q124 0 212-88t88-212q-124 0-212 88t-88 212zm7e2.0q0-124-88-212t-212-88q0 124 88 212t212 88zM7e2 199V55q0-21-14.5-35.5T650 5t-35.5 14.5T6e2 55v142q40-4 43-4 17 0 57 6z"/><glyph unicode="&#xe240;" d="M745 878l69 19q25 6 45-12l298-295q11-11 15-26.5t-2-30.5q-5-14-18-23.5t-28-9.5h-8q1 0 1-13 0-29-2-56t-8.5-62-20-63-33-53-51-39-72.5-14H784q-184 0-184 288 0 24 10 47-20 4-62 4t-63-4q11-24 11-47 0-288-184-288H170q-48 0-84.5 21t-56 51-32 71.5-16 75T-22 487q0 13 2 13h-7q-15 0-27.5 9.5T-73 533q-6 15-2 30.5t15 25.5l298 296q20 18 46 11l76-19q20-5 30.5-22.5T396 817t-22.5-31-37.5-5l-51 12-182-193h891L812 793l-44-12q-20-5-37.5 6T708 818t6 37.5 31 22.5z"/><glyph unicode="&#xe241;" d="M12e2 9e2h-50q0 21-4 37t-9.5 26.5-18 17.5-22 11-28.5 5.5-31 2-37 .5H8e2V150q0-22 25-34.5t50-13.5l25-2V0H5e2v1e2q4 0 11 .5t24 3 30 7 24 15 11 24.5v850H4e2q-25 0-37-.5t-31-2-28.5-5.5-22-11-18-17.5T254 937t-4-37h-50v3e2h1e3V9e2zM5e2 450h-25q0 15-4 24.5t-9 14.5-17 7.5-20 3-25 .5H3e2V75q0-11 12.5-17.5T338 50h12V0H150v50q50 0 50 25v425H1e2q-17 0-25-.5t-20-3-17-7.5-9-14.5-4-24.5H0v150h5e2V450z"/><glyph unicode="&#xe242;" d="M1e3 3e2v50q-25 0-55 32-14 14-25 31t-16 27l-4 11-289 747h-69L242 444q-18-35-39-56-9-9-24.5-18.5T152 355l-11-5v-50h273v50q-49 0-78.5 21.5T324 439l69 176h293l61-166q13-34-3.5-66.5T688 350v-50h312zM412 691l134 342 121-342H412zm688-541V50q0-21-14.5-35.5T1050 0H50Q29 0 14.5 14.5T0 50v1e2q0 21 14.5 35.5T50 2e2h1e3q21 0 35.5-14.5T11e2 150z"/><glyph unicode="&#xe243;" d="M50 12e2h11e2q21 0 35.5-14.5t14.5-35.5V50q0-21-14.5-35.5T1150 0H50Q29 0 14.5 14.5T0 50v11e2q0 21 14.5 35.5T50 12e2zm561-82h-70q-13 0-18-12L224 353q-17-32-35-51-18-18-56-34-12-5-12-18v-50q0-8 5.5-14t14.5-6h273q8 0 14 6t6 14v50q0 8-6 14t-14 6q-55 0-71 23-10 14 0 39l63 163h266l57-153q11-31-6-55-12-17-36-17-8 0-14-6t-6-14v-50q0-8 6-14t14-6h313q8 0 14 6t6 14v50q0 7-5.5 13t-13.5 7q-17 0-42 25-25 27-40 63h-1l-288 748q-5 12-19 12zm28-507H442l103 264z"/><glyph unicode="&#xe244;" d="M12e2 11e2H0v1e2h12e2v-1e2zM50 1e3h4e2q21 0 35.5-14.5T5e2 950V50q0-21-14.5-35.5T450 0H50Q29 0 14.5 14.5T0 50v9e2q0 21 14.5 35.5T50 1e3zm6e2.0h4e2q21 0 35.5-14.5T11e2 950V550q0-21-14.5-35.5T1050 5e2H650q-21 0-35.5 14.5T6e2 550v4e2q0 21 14.5 35.5T650 1e3zm50-1e2V6e2h3e2v3e2H7e2z"/><glyph unicode="&#xe245;" d="M50 12e2h4e2q21 0 35.5-14.5T5e2 1150V250q0-21-14.5-35.5T450 2e2H50q-21 0-35.5 14.5T0 250v9e2q0 21 14.5 35.5T50 12e2zM650 7e2h4e2q21 0 35.5-14.5T11e2 650V250q0-21-14.5-35.5T1050 2e2H650q-21 0-35.5 14.5T6e2 250v4e2q0 21 14.5 35.5T650 7e2zm50-1e2V3e2h3e2v3e2H7e2zM12e2.0H0v1e2h12e2V0z"/><glyph unicode="&#xe246;" d="M50 1e3h4e2q21 0 35.5-14.5T5e2 950V6e2h1e2v150q0 21 14.5 35.5T650 8e2h4e2q21 0 35.5-14.5T11e2 750V6e2h1e2V5e2h-1e2V350q0-21-14.5-35.5T1050 3e2H650q-21 0-35.5 14.5T6e2 350v150H5e2V150q0-21-14.5-35.5T450 1e2H50q-21 0-35.5 14.5T0 150v8e2q0 21 14.5 35.5T50 1e3zM7e2 7e2V4e2h3e2v3e2H7e2z"/><glyph unicode="&#xe247;" d="M1e2.0H0v12e2h1e2V0zM250 11e2h4e2q21 0 35.5-14.5T7e2 1050V650q0-21-14.5-35.5T650 6e2H250q-21 0-35.5 14.5T2e2 650v4e2q0 21 14.5 35.5T250 11e2zm50-1e2V7e2h3e2v3e2H3e2zM250 5e2h9e2q21 0 35.5-14.5T12e2 450V50q0-21-14.5-35.5T1150 0H250q-21 0-35.5 14.5T2e2 50v4e2q0 21 14.5 35.5T250 5e2z"/><glyph unicode="&#xe248;" d="M6e2 11e2h150q21 0 35.5-14.5T8e2 1050V650q0-21-14.5-35.5T750 6e2H6e2V5e2h450q21 0 35.5-14.5T11e2 450V50q0-21-14.5-35.5T1050 0H150q-21 0-35.5 14.5T1e2 50v4e2q0 21 14.5 35.5T150 5e2h350v1e2H350q-21 0-35.5 14.5T3e2 650v4e2q0 21 14.5 35.5T350 11e2h150v1e2h1e2v-1e2zM4e2 1e3V7e2h3e2v3e2H4e2z"/><glyph unicode="&#xe249;" d="M12e2.0h-1e2v12e2h1e2V0zM550 11e2h4e2q21 0 35.5-14.5T1e3 1050V650q0-21-14.5-35.5T950 6e2H550q-21 0-35.5 14.5T5e2 650v4e2q0 21 14.5 35.5T550 11e2zm50-1e2V7e2h3e2v3e2H6e2zM50 5e2h9e2q21 0 35.5-14.5T1e3 450V50q0-21-14.5-35.5T950 0H50Q29 0 14.5 14.5T0 50v4e2q0 21 14.5 35.5T50 5e2z"/><glyph unicode="&#xe250;" d="M865 565 371 71q-23-23-41-23-14 0-22 13.5t-8 38.5v1e3q0 25 8 38.5t22 13.5q18 0 41-23l494-494q14-14 14-35t-14-35z"/><glyph unicode="&#xe251;" d="M335 635l494 494q29 29 50 20.5t21-49.5V1e2q0-41-21-49.5T829 71L335 565q-14 14-14 35t14 35z"/><glyph unicode="&#xe252;" d="M1e2 9e2h1e3q41 0 49.5-21t-20.5-50L635 335q-14-14-35-14t-35 14L71 829q-29 29-20.5 50t49.5 21z"/><glyph unicode="&#xe253;" d="M635 865l494-494q29-29 20.5-50t-49.5-21H1e2q-41 0-49.5 21T71 371l494 494q14 14 35 14t35-14z"/><glyph unicode="&#xe254;" d="M7e2 741V559L8 236v221l413 193L8 843v221zM12e2.0H4e2v2e2h8e2V0z"/><glyph unicode="&#xe255;" d="M12e2 9e2H1e3V8e2h2e2V7e2H9e2v3e2h2e2v1e2H9e2v1e2h3e2V9e2zM0 7e2h50q0 21 4 37t9.5 26.5 18 17.5 22 11 28.5 5.5 31 2 37 .5h1e2V250q0-22-25-34.5T225 202l-25-2V1e2h4e2v1e2q-4 0-11 .5t-24 3-30 7-24 15-11 24.5v550h1e2q25 0 37-.5t31-2 28.5-5.5 22-11 18-17.5T746 737t4-37h50v3e2H0V7e2z"/><glyph unicode="&#xe256;" d="M8e2 7e2h-50q0 21-4 37t-9.5 26.5-18 17.5-22 11-28.5 5.5-31 2-37 .5H5e2V250q0-22 25-34.5t50-14.5l25-1V1e2H2e2v1e2q4 0 11 .5t24 3 30 7 24 15 11 24.5v550H2e2q-25 0-37-.5t-31-2-28.5-5.5-22-11-18-17.5T54 737t-4-37H0v3e2h8e2V7e2zm3e2-5e2H9e2V1e2h2e2V0H8e2v3e2h2e2v1e2H8e2v1e2h3e2V2e2z"/><glyph unicode="&#xe257;" d="M701 1098h160q16 0 21-11t-7-23L411 6e2l464-464q12-12 7-23t-21-11H701q-13 0-23 9L207 582q-7 8-7 18t7 18l471 471q10 9 23 9z"/><glyph unicode="&#xe258;" d="M339 1098h160q13 0 23-9l471-471q7-8 7-18t-7-18L522 111q-10-9-23-9H339q-16 0-21 11t7 23l464 464-464 464q-12 12-7 23t21 11z"/><glyph unicode="&#xe259;" d="M1087 882q11-5 11-21V701q0-13-9-23L618 207q-8-7-18-7t-18 7L111 678q-9 10-9 23v160q0 16 11 21t23-7l464-464 464 464q12 12 23 7z"/><glyph unicode="&#xe260;" d="M618 993l471-471q9-10 9-23V339q0-16-11-21t-23 7L6e2 789 136 325q-12-12-23-7t-11 21v160q0 13 9 23l471 471q8 7 18 7t18-7z"/><glyph unicode="&#xf8ff;" d="M1e3 12e2q0-124-88-212t-212-88q0 124 88 212t212 88zM450 1e3h1e2q21 0 40-14t26-33l79-194q5 1 16 3 34 6 54 9.5t60 7 65.5 1 61-10 56.5-23 42.5-42 29-64 5-92T1065 427q-1-7-3-19.5t-11-50-20.5-73T998 203t-46.5-83-64-70T805 0q-13-5-42-5t-65.5 2.5T650 0q-14 0-49.5-3.5t-63-3.5T494 0q-57 25-104.5 78.5t-75 111.5T268 302t-26 90l-7 35q-15 63-18 115t4.5 88.5 26 64T287 738t52 25.5 58.5 13 62.5 2 59.5-4.5 55.5-8L428 958q-12 18-5.5 30t27.5 12z"/><glyph unicode="&#x1f511;" d="M250 12e2h6e2q21 0 35.5-14.5T9e2 1150V750q0-21-14.5-35.5T850 7e2H7e2V2e2L445 22q-19-9-32-1t-13 29v650H250q-21 0-35.5 14.5T2e2 750v4e2q0 21 14.5 35.5T250 12e2zm150-1e2V1e3h3e2v1e2H4e2z"/><glyph unicode="&#x1f6aa;" d="M250 12e2h750q39 0 69.5-40.5t30.5-84.5V142L4e2 25v950l6e2 125H3e2V1e2H2e2v1025q0 23 15.5 49t34.5 26zM5e2 525V425l1e2 20v1e2z"/></font>
</defs>
</svg>
